<?xml version="1.0" encoding="UTF-8" standalone="no"?><svg xmlns="http://www.w3.org/2000/svg" xmlns:xlink="http://www.w3.org/1999/xlink" contentScriptType="application/ecmascript" contentStyleType="text/css" height="568px" preserveAspectRatio="none" style="width:515px;height:568px;background:#FFFFFF;" version="1.1" viewBox="0 0 515 568" width="515px" zoomAndPan="magnify"><defs><filter height="300%" id="fmdxbs3k1jtbi" width="300%" x="-1" y="-1"><feGaussianBlur result="blurOut" stdDeviation="2.0"/><feColorMatrix in="blurOut" result="blurOut2" type="matrix" values="0 0 0 0 0 0 0 0 0 0 0 0 0 0 0 0 0 0 .4 0"/><feOffset dx="4.0" dy="4.0" in="blurOut2" result="blurOut3"/><feBlend in="SourceGraphic" in2="blurOut3" mode="normal"/></filter></defs><g><!--MD5=[b612e5d23d7d3446c756baf21c953ec1]
cluster CostAllocationCSV--><polygon fill="#FFFFFF" filter="url(#fmdxbs3k1jtbi)" points="16,79,220,79,227,102.6094,296,102.6094,296,561,16,561,16,79" style="stroke:#000000;stroke-width:1.5;"/><line style="stroke:#000000;stroke-width:1.5;" x1="16" x2="227" y1="102.6094" y2="102.6094"/><text fill="#000000" font-family="sans-serif" font-size="14" font-weight="bold" lengthAdjust="spacing" textLength="198" x="20" y="95.5332">Service Cost Allocation Data</text><!--MD5=[8185f9e7a8208cff32031f28f70075f5]
class CostAllocationItem--><rect codeLine="20" fill="#FEFECE" filter="url(#fmdxbs3k1jtbi)" height="117.1797" id="CostAllocationItem" style="stroke:#A80036;stroke-width:1.5;" width="248" x="32" y="237"/><ellipse cx="100.25" cy="253" fill="#ADD1B2" rx="11" ry="11" style="stroke:#A80036;stroke-width:1.0;"/><path d="M102.25,249.5 Q102.4531,249 102.6875,248.75 Q102.9219,248.5 103.1875,248.5 Q103.6563,248.5 103.9531,248.7813 Q104.25,249.0625 104.25,249.7188 L104.25,251.2813 Q104.25,251.9375 103.9688,252.2188 Q103.6875,252.5 103.25,252.5 Q102.8594,252.5 102.6094,252.3281 Q102.3594,252.1563 102.25,251.7031 Q102.2031,251.3906 102.0313,251.2188 Q101.7188,250.8906 101.1563,250.7031 Q100.5938,250.5 100.0313,250.5 Q99.3281,250.5 98.7344,250.7813 Q98.1563,251.0625 97.7031,251.6875 Q97.25,252.3125 97.25,253.1719 L97.25,254.0938 Q97.25,255.125 98.0938,255.8125 Q98.9375,256.5 100.4375,256.5 Q101.3281,256.5 101.9531,256.2969 Q102.3125,256.1875 102.7188,255.8281 Q102.9844,255.625 103.125,255.5625 Q103.2656,255.5 103.4375,255.5 Q103.7656,255.5 104,255.7656 Q104.25,256.0156 104.25,256.375 Q104.25,256.7188 103.9063,257.125 Q103.4063,257.7188 102.6094,258.0469 Q101.5625,258.5 100.2813,258.5 Q98.7813,258.5 97.5781,257.9063 Q96.6094,257.4375 95.9219,256.4219 Q95.25,255.4063 95.25,254.2031 L95.25,253.1094 Q95.25,251.8594 95.8438,250.7656 Q96.4531,249.6719 97.5,249.0938 Q98.5625,248.5 99.75,248.5 Q100.4688,248.5 101.0938,248.75 Q101.7188,249 102.25,249.5 Z " fill="#000000"/><text fill="#000000" font-family="sans-serif" font-size="12" lengthAdjust="spacing" textLength="103" x="120.75" y="257.9102">CostAllocationItem</text><line style="stroke:#A80036;stroke-width:1.5;" x1="33" x2="279" y1="269" y2="269"/><text fill="#000000" font-family="sans-serif" font-size="11" lengthAdjust="spacing" textLength="200" x="38" y="284.4189">ProviderMeter[Name/Unit/Value][1/2/3/4/5]</text><text fill="#000000" font-family="sans-serif" font-size="11" lengthAdjust="spacing" textLength="236" x="38" y="298.2549">ProviderTagSelector: Key/Cost/CloudTagSelector</text><text fill="#000000" font-family="sans-serif" font-size="11" lengthAdjust="spacing" textLength="133" x="38" y="312.0908">ProviderCostAllocationType</text><text fill="#000000" font-family="sans-serif" font-size="11" lengthAdjust="spacing" textLength="128" x="38" y="325.9268">ProviderCostAllocationKey</text><text fill="#000000" font-family="sans-serif" font-size="11" lengthAdjust="spacing" textLength="194" x="38" y="339.7627">ProviderCostAllocationCloudTagSelector</text><line style="stroke:#A80036;stroke-width:1.5;" x1="33" x2="279" y1="346.1797" y2="346.1797"/><!--MD5=[d4a63327ff2550724f02498610121399]
class ProductCostItem--><rect codeLine="28" fill="#FEFECE" filter="url(#fmdxbs3k1jtbi)" height="61.8359" id="ProductCostItem" style="stroke:#A80036;stroke-width:1.5;" width="161" x="75.5" y="115"/><ellipse cx="107.15" cy="131" fill="#ADD1B2" rx="11" ry="11" style="stroke:#A80036;stroke-width:1.0;"/><path d="M109.15,127.5 Q109.3531,127 109.5875,126.75 Q109.8219,126.5 110.0875,126.5 Q110.5563,126.5 110.8531,126.7813 Q111.15,127.0625 111.15,127.7188 L111.15,129.2813 Q111.15,129.9375 110.8688,130.2188 Q110.5875,130.5 110.15,130.5 Q109.7594,130.5 109.5094,130.3281 Q109.2594,130.1563 109.15,129.7031 Q109.1031,129.3906 108.9313,129.2188 Q108.6188,128.8906 108.0563,128.7031 Q107.4938,128.5 106.9313,128.5 Q106.2281,128.5 105.6344,128.7813 Q105.0563,129.0625 104.6031,129.6875 Q104.15,130.3125 104.15,131.1719 L104.15,132.0938 Q104.15,133.125 104.9938,133.8125 Q105.8375,134.5 107.3375,134.5 Q108.2281,134.5 108.8531,134.2969 Q109.2125,134.1875 109.6188,133.8281 Q109.8844,133.625 110.025,133.5625 Q110.1656,133.5 110.3375,133.5 Q110.6656,133.5 110.9,133.7656 Q111.15,134.0156 111.15,134.375 Q111.15,134.7188 110.8063,135.125 Q110.3063,135.7188 109.5094,136.0469 Q108.4625,136.5 107.1813,136.5 Q105.6813,136.5 104.4781,135.9063 Q103.5094,135.4375 102.8219,134.4219 Q102.15,133.4063 102.15,132.2031 L102.15,131.1094 Q102.15,129.8594 102.7438,128.7656 Q103.3531,127.6719 104.4,127.0938 Q105.4625,126.5 106.65,126.5 Q107.3688,126.5 107.9938,126.75 Q108.6188,127 109.15,127.5 Z " fill="#000000"/><text fill="#000000" font-family="sans-serif" font-size="12" lengthAdjust="spacing" textLength="92" x="124.85" y="135.9102">ProductCostItem</text><line style="stroke:#A80036;stroke-width:1.5;" x1="76.5" x2="235.5" y1="147" y2="147"/><text fill="#000000" font-family="sans-serif" font-size="11" lengthAdjust="spacing" textLength="149" x="81.5" y="162.4189">ProductMeter[Name/Unit/Value]</text><line style="stroke:#A80036;stroke-width:1.5;" x1="76.5" x2="235.5" y1="168.8359" y2="168.8359"/><!--MD5=[b35fb6a18a7e3916e657c07801ef3516]
class ConsumerCostItem--><rect codeLine="32" fill="#FEFECE" filter="url(#fmdxbs3k1jtbi)" height="131.0156" id="ConsumerCostItem" style="stroke:#A80036;stroke-width:1.5;" width="141" x="110.5" y="414"/><ellipse cx="125.5" cy="430" fill="#ADD1B2" rx="11" ry="11" style="stroke:#A80036;stroke-width:1.0;"/><path d="M127.5,426.5 Q127.7031,426 127.9375,425.75 Q128.1719,425.5 128.4375,425.5 Q128.9063,425.5 129.2031,425.7813 Q129.5,426.0625 129.5,426.7188 L129.5,428.2813 Q129.5,428.9375 129.2188,429.2188 Q128.9375,429.5 128.5,429.5 Q128.1094,429.5 127.8594,429.3281 Q127.6094,429.1563 127.5,428.7031 Q127.4531,428.3906 127.2813,428.2188 Q126.9688,427.8906 126.4063,427.7031 Q125.8438,427.5 125.2813,427.5 Q124.5781,427.5 123.9844,427.7813 Q123.4063,428.0625 122.9531,428.6875 Q122.5,429.3125 122.5,430.1719 L122.5,431.0938 Q122.5,432.125 123.3438,432.8125 Q124.1875,433.5 125.6875,433.5 Q126.5781,433.5 127.2031,433.2969 Q127.5625,433.1875 127.9688,432.8281 Q128.2344,432.625 128.375,432.5625 Q128.5156,432.5 128.6875,432.5 Q129.0156,432.5 129.25,432.7656 Q129.5,433.0156 129.5,433.375 Q129.5,433.7188 129.1563,434.125 Q128.6563,434.7188 127.8594,435.0469 Q126.8125,435.5 125.5313,435.5 Q124.0313,435.5 122.8281,434.9063 Q121.8594,434.4375 121.1719,433.4219 Q120.5,432.4063 120.5,431.2031 L120.5,430.1094 Q120.5,428.8594 121.0938,427.7656 Q121.7031,426.6719 122.75,426.0938 Q123.8125,425.5 125,425.5 Q125.7188,425.5 126.3438,425.75 Q126.9688,426 127.5,426.5 Z " fill="#000000"/><text fill="#000000" font-family="sans-serif" font-size="12" lengthAdjust="spacing" textLength="109" x="139.5" y="434.9102">ConsumerCostItem</text><line style="stroke:#A80036;stroke-width:1.5;" x1="111.5" x2="250.5" y1="446" y2="446"/><text fill="#000000" font-family="sans-serif" font-size="11" lengthAdjust="spacing" textLength="86" x="116.5" y="461.4189">ConsumerService</text><text fill="#000000" font-family="sans-serif" font-size="11" lengthAdjust="spacing" textLength="90" x="116.5" y="475.2549">ConsumerInstance</text><text fill="#000000" font-family="sans-serif" font-size="11" lengthAdjust="spacing" textLength="103" x="116.5" y="489.0908">ConsumerComponent</text><text fill="#000000" font-family="sans-serif" font-size="11" lengthAdjust="spacing" textLength="108" x="116.5" y="502.9268">ConsumerEnvironment</text><text fill="#000000" font-family="sans-serif" font-size="11" lengthAdjust="spacing" textLength="87" x="116.5" y="516.7627">ConsumerPartition</text><text fill="#000000" font-family="sans-serif" font-size="11" lengthAdjust="spacing" textLength="73" x="116.5" y="530.5986">ConsumerTags</text><line style="stroke:#A80036;stroke-width:1.5;" x1="111.5" x2="250.5" y1="537.0156" y2="537.0156"/><!--MD5=[72136138052d025cffdce3c22fbd185f]
class Product--><rect codeLine="2" fill="#FEFECE" filter="url(#fmdxbs3k1jtbi)" height="48" id="Product" style="stroke:#A80036;stroke-width:1.5;" width="74" x="119" y="7"/><ellipse cx="134" cy="23" fill="#ADD1B2" rx="11" ry="11" style="stroke:#A80036;stroke-width:1.0;"/><path d="M136,19.5 Q136.2031,19 136.4375,18.75 Q136.6719,18.5 136.9375,18.5 Q137.4063,18.5 137.7031,18.7813 Q138,19.0625 138,19.7188 L138,21.2813 Q138,21.9375 137.7188,22.2188 Q137.4375,22.5 137,22.5 Q136.6094,22.5 136.3594,22.3281 Q136.1094,22.1563 136,21.7031 Q135.9531,21.3906 135.7813,21.2188 Q135.4688,20.8906 134.9063,20.7031 Q134.3438,20.5 133.7813,20.5 Q133.0781,20.5 132.4844,20.7813 Q131.9063,21.0625 131.4531,21.6875 Q131,22.3125 131,23.1719 L131,24.0938 Q131,25.125 131.8438,25.8125 Q132.6875,26.5 134.1875,26.5 Q135.0781,26.5 135.7031,26.2969 Q136.0625,26.1875 136.4688,25.8281 Q136.7344,25.625 136.875,25.5625 Q137.0156,25.5 137.1875,25.5 Q137.5156,25.5 137.75,25.7656 Q138,26.0156 138,26.375 Q138,26.7188 137.6563,27.125 Q137.1563,27.7188 136.3594,28.0469 Q135.3125,28.5 134.0313,28.5 Q132.5313,28.5 131.3281,27.9063 Q130.3594,27.4375 129.6719,26.4219 Q129,25.4063 129,24.2031 L129,23.1094 Q129,21.8594 129.5938,20.7656 Q130.2031,19.6719 131.25,19.0938 Q132.3125,18.5 133.5,18.5 Q134.2188,18.5 134.8438,18.75 Q135.4688,19 136,19.5 Z " fill="#000000"/><text fill="#000000" font-family="sans-serif" font-size="12" lengthAdjust="spacing" textLength="42" x="148" y="27.9102">Product</text><line style="stroke:#A80036;stroke-width:1.5;" x1="120" x2="192" y1="39" y2="39"/><line style="stroke:#A80036;stroke-width:1.5;" x1="120" x2="192" y1="47" y2="47"/><!--MD5=[dbb8b4f13c7b21394f9d757e58732f45]
class Service--><rect codeLine="4" fill="#FEFECE" filter="url(#fmdxbs3k1jtbi)" height="48" id="Service" style="stroke:#A80036;stroke-width:1.5;" width="72" x="334" y="7"/><ellipse cx="349" cy="23" fill="#ADD1B2" rx="11" ry="11" style="stroke:#A80036;stroke-width:1.0;"/><path d="M351,19.5 Q351.2031,19 351.4375,18.75 Q351.6719,18.5 351.9375,18.5 Q352.4063,18.5 352.7031,18.7813 Q353,19.0625 353,19.7188 L353,21.2813 Q353,21.9375 352.7188,22.2188 Q352.4375,22.5 352,22.5 Q351.6094,22.5 351.3594,22.3281 Q351.1094,22.1563 351,21.7031 Q350.9531,21.3906 350.7813,21.2188 Q350.4688,20.8906 349.9063,20.7031 Q349.3438,20.5 348.7813,20.5 Q348.0781,20.5 347.4844,20.7813 Q346.9063,21.0625 346.4531,21.6875 Q346,22.3125 346,23.1719 L346,24.0938 Q346,25.125 346.8438,25.8125 Q347.6875,26.5 349.1875,26.5 Q350.0781,26.5 350.7031,26.2969 Q351.0625,26.1875 351.4688,25.8281 Q351.7344,25.625 351.875,25.5625 Q352.0156,25.5 352.1875,25.5 Q352.5156,25.5 352.75,25.7656 Q353,26.0156 353,26.375 Q353,26.7188 352.6563,27.125 Q352.1563,27.7188 351.3594,28.0469 Q350.3125,28.5 349.0313,28.5 Q347.5313,28.5 346.3281,27.9063 Q345.3594,27.4375 344.6719,26.4219 Q344,25.4063 344,24.2031 L344,23.1094 Q344,21.8594 344.5938,20.7656 Q345.2031,19.6719 346.25,19.0938 Q347.3125,18.5 348.5,18.5 Q349.2188,18.5 349.8438,18.75 Q350.4688,19 351,19.5 Z " fill="#000000"/><text fill="#000000" font-family="sans-serif" font-size="12" lengthAdjust="spacing" textLength="40" x="363" y="27.9102">Service</text><line style="stroke:#A80036;stroke-width:1.5;" x1="335" x2="405" y1="39" y2="39"/><line style="stroke:#A80036;stroke-width:1.5;" x1="335" x2="405" y1="47" y2="47"/><!--MD5=[dbfd7680984eb54d794e10dee7f3936a]
class Instance--><rect codeLine="6" fill="#FEFECE" filter="url(#fmdxbs3k1jtbi)" height="48" id="Instance" style="stroke:#A80036;stroke-width:1.5;" width="79" x="330.5" y="122"/><ellipse cx="345.5" cy="138" fill="#ADD1B2" rx="11" ry="11" style="stroke:#A80036;stroke-width:1.0;"/><path d="M347.5,134.5 Q347.7031,134 347.9375,133.75 Q348.1719,133.5 348.4375,133.5 Q348.9063,133.5 349.2031,133.7813 Q349.5,134.0625 349.5,134.7188 L349.5,136.2813 Q349.5,136.9375 349.2188,137.2188 Q348.9375,137.5 348.5,137.5 Q348.1094,137.5 347.8594,137.3281 Q347.6094,137.1563 347.5,136.7031 Q347.4531,136.3906 347.2813,136.2188 Q346.9688,135.8906 346.4063,135.7031 Q345.8438,135.5 345.2813,135.5 Q344.5781,135.5 343.9844,135.7813 Q343.4063,136.0625 342.9531,136.6875 Q342.5,137.3125 342.5,138.1719 L342.5,139.0938 Q342.5,140.125 343.3438,140.8125 Q344.1875,141.5 345.6875,141.5 Q346.5781,141.5 347.2031,141.2969 Q347.5625,141.1875 347.9688,140.8281 Q348.2344,140.625 348.375,140.5625 Q348.5156,140.5 348.6875,140.5 Q349.0156,140.5 349.25,140.7656 Q349.5,141.0156 349.5,141.375 Q349.5,141.7188 349.1563,142.125 Q348.6563,142.7188 347.8594,143.0469 Q346.8125,143.5 345.5313,143.5 Q344.0313,143.5 342.8281,142.9063 Q341.8594,142.4375 341.1719,141.4219 Q340.5,140.4063 340.5,139.2031 L340.5,138.1094 Q340.5,136.8594 341.0938,135.7656 Q341.7031,134.6719 342.75,134.0938 Q343.8125,133.5 345,133.5 Q345.7188,133.5 346.3438,133.75 Q346.9688,134 347.5,134.5 Z " fill="#000000"/><text fill="#000000" font-family="sans-serif" font-size="12" lengthAdjust="spacing" textLength="47" x="359.5" y="142.9102">Instance</text><line style="stroke:#A80036;stroke-width:1.5;" x1="331.5" x2="408.5" y1="154" y2="154"/><line style="stroke:#A80036;stroke-width:1.5;" x1="331.5" x2="408.5" y1="162" y2="162"/><!--MD5=[5b1d549712648da210eaf378391d698f]
class CostItem--><rect codeLine="9" fill="#FEFECE" filter="url(#fmdxbs3k1jtbi)" height="117.1797" id="CostItem" style="stroke:#A80036;stroke-width:1.5;" width="145" x="315.5" y="237"/><ellipse cx="358.85" cy="253" fill="#A9DCDF" rx="11" ry="11" style="stroke:#A80036;stroke-width:1.0;"/><path d="M360.6,254.5 L357.3031,254.5 L356.8656,255.5 L356.8656,255.5 L357.3344,255.5 L357.85,256.125 L357.85,256.5 L357.85,256.875 L357.3344,257.5 L356.8656,257.5 L354.975,257.5 L354.3656,257.5 L353.85,256.875 L353.85,256.5 L353.85,256.125 L354.3656,255.5 L354.975,255.5 L357.2875,249.5 L356.4125,249.5 L355.3656,249.5 L354.85,248.875 L354.85,248.5 L354.85,248.125 L355.3656,247.5 L356.4125,247.5 L360.0844,247.5 L362.7719,255.5 L363.3344,255.5 L363.3344,255.5 L363.85,256.125 L363.85,256.5 L363.85,256.875 L363.3344,257.5 L362.7719,257.5 L360.8813,257.5 L360.3656,257.5 L359.85,256.875 L359.85,256.5 L359.85,256.125 L360.3656,255.5 L360.8813,255.5 L360.8813,255.5 L360.6,254.5 Z M360.0531,252.5 L358.85,248.9219 L357.8188,252.5 L360.0531,252.5 Z " fill="#000000"/><text fill="#000000" font-family="sans-serif" font-size="12" font-style="italic" lengthAdjust="spacing" textLength="50" x="379.15" y="257.9102">CostItem</text><line style="stroke:#A80036;stroke-width:1.5;" x1="316.5" x2="459.5" y1="269" y2="269"/><text fill="#000000" font-family="sans-serif" font-size="11" lengthAdjust="spacing" textLength="133" x="321.5" y="284.4189">[Amortized/OnDemand]Cost</text><text fill="#000000" font-family="sans-serif" font-size="11" lengthAdjust="spacing" textLength="54" x="321.5" y="298.2549">Component</text><text fill="#000000" font-family="sans-serif" font-size="11" lengthAdjust="spacing" textLength="59" x="321.5" y="312.0908">Environment</text><text fill="#000000" font-family="sans-serif" font-size="11" lengthAdjust="spacing" textLength="38" x="321.5" y="325.9268">Partition</text><text fill="#000000" font-family="sans-serif" font-size="11" lengthAdjust="spacing" textLength="24" x="321.5" y="339.7627">Tags</text><line style="stroke:#A80036;stroke-width:1.5;" x1="316.5" x2="459.5" y1="346.1797" y2="346.1797"/><!--MD5=[0b5f4006b35f658d2e4824834f7bc644]
class CloudProviderCostItem--><rect codeLine="49" fill="#FEFECE" filter="url(#fmdxbs3k1jtbi)" height="61.8359" id="CloudProviderCostItem" style="stroke:#A80036;stroke-width:1.5;" width="189" x="312.5" y="448.5"/><ellipse cx="340.55" cy="464.5" fill="#ADD1B2" rx="11" ry="11" style="stroke:#A80036;stroke-width:1.0;"/><path d="M342.55,461 Q342.7531,460.5 342.9875,460.25 Q343.2219,460 343.4875,460 Q343.9563,460 344.2531,460.2813 Q344.55,460.5625 344.55,461.2188 L344.55,462.7813 Q344.55,463.4375 344.2688,463.7188 Q343.9875,464 343.55,464 Q343.1594,464 342.9094,463.8281 Q342.6594,463.6563 342.55,463.2031 Q342.5031,462.8906 342.3313,462.7188 Q342.0188,462.3906 341.4563,462.2031 Q340.8938,462 340.3313,462 Q339.6281,462 339.0344,462.2813 Q338.4563,462.5625 338.0031,463.1875 Q337.55,463.8125 337.55,464.6719 L337.55,465.5938 Q337.55,466.625 338.3938,467.3125 Q339.2375,468 340.7375,468 Q341.6281,468 342.2531,467.7969 Q342.6125,467.6875 343.0188,467.3281 Q343.2844,467.125 343.425,467.0625 Q343.5656,467 343.7375,467 Q344.0656,467 344.3,467.2656 Q344.55,467.5156 344.55,467.875 Q344.55,468.2188 344.2063,468.625 Q343.7063,469.2188 342.9094,469.5469 Q341.8625,470 340.5813,470 Q339.0813,470 337.8781,469.4063 Q336.9094,468.9375 336.2219,467.9219 Q335.55,466.9063 335.55,465.7031 L335.55,464.6094 Q335.55,463.3594 336.1438,462.2656 Q336.7531,461.1719 337.8,460.5938 Q338.8625,460 340.05,460 Q340.7688,460 341.3938,460.25 Q342.0188,460.5 342.55,461 Z " fill="#000000"/><text fill="#000000" font-family="sans-serif" font-size="12" lengthAdjust="spacing" textLength="128" x="357.45" y="469.4102">CloudProviderCostItem</text><line style="stroke:#A80036;stroke-width:1.5;" x1="313.5" x2="500.5" y1="480.5" y2="480.5"/><text fill="#000000" font-family="sans-serif" font-size="11" lengthAdjust="spacing" textLength="177" x="318.5" y="495.9189">Cost line: ResourceId, BillingMeter, ...</text><line style="stroke:#A80036;stroke-width:1.5;" x1="313.5" x2="500.5" y1="502.3359" y2="502.3359"/><!--MD5=[da6bf26049017d36b72aba462b5bdd3d]
reverse link Service to Instance--><path codeLine="7" d="M370,68.17 C370,85.78 370,106.44 370,121.89 " fill="none" id="Service-backto-Instance" style="stroke:#A80036;stroke-width:1.0;"/><polygon fill="#A80036" points="370,55.14,366,61.14,370,67.14,374,61.14,370,55.14" style="stroke:#A80036;stroke-width:1.0;"/><text fill="#000000" font-family="sans-serif" font-size="13" lengthAdjust="spacing" textLength="7" x="362.1469" y="76.5121">1</text><text fill="#000000" font-family="sans-serif" font-size="13" lengthAdjust="spacing" textLength="7" x="362.1031" y="111.202">n</text><!--MD5=[56b5b3c6f23d68d9aaf3cfe6cf8a2ec5]
reverse link Instance to CostItem--><path codeLine="16" d="M374.43,183.29 C376.4,199.45 378.77,218.88 380.98,236.94 " fill="none" id="Instance-backto-CostItem" style="stroke:#A80036;stroke-width:1.0;"/><polygon fill="#A80036" points="372.81,170.05,369.5649,176.4897,374.2611,181.9619,377.5062,175.5223,372.81,170.05" style="stroke:#A80036;stroke-width:1.0;"/><text fill="#000000" font-family="sans-serif" font-size="13" lengthAdjust="spacing" textLength="7" x="365.6418" y="191.4002">1</text><text fill="#000000" font-family="sans-serif" font-size="13" lengthAdjust="spacing" textLength="7" x="372.6979" y="226.3336">n</text><!--MD5=[4f939b22b2f5c1df8de964ff0b4e1358]
link Instance to CostAllocationItem--><path codeLine="41" d="M336.56,170.05 C311.7,187.18 276.57,211.4 243.89,233.92 " fill="none" id="Instance-to-CostAllocationItem" style="stroke:#A80036;stroke-width:1.0;"/><polygon fill="#A80036" points="239.5,236.94,249.1825,235.1374,243.6202,234.1074,244.6503,228.5451,239.5,236.94" style="stroke:#A80036;stroke-width:1.0;"/><text fill="#000000" font-family="sans-serif" font-size="13" lengthAdjust="spacing" textLength="7" x="320.5559" y="191.4002">1</text><text fill="#000000" font-family="sans-serif" font-size="13" lengthAdjust="spacing" textLength="7" x="242.25" y="226.3336">n</text><!--MD5=[514c0ba441db9c585dc31c406542939e]
reverse link CostItem to ConsumerCostItem--><path codeLine="43" d="M307.39,367.37 C289.05,383.5 269.7,400.51 251.8,416.25 " fill="none" id="CostItem-backto-ConsumerCostItem" style="stroke:#A80036;stroke-width:1.0;"/><polygon fill="none" points="302.86,362.03,322.5,354.09,312.11,372.55,302.86,362.03" style="stroke:#A80036;stroke-width:1.0;"/><!--MD5=[8b8c0fdfbd2dd8d8d91cad9f7ec18f7f]
reverse link CostAllocationItem to ConsumerCostItem--><path codeLine="44" d="M165.72,367.27 C167.82,382.56 170.03,398.65 172.1,413.69 " fill="none" id="CostAllocationItem-backto-ConsumerCostItem" style="stroke:#A80036;stroke-width:1.0;"/><polygon fill="#A80036" points="163.91,354.09,160.7574,360.5754,165.5314,365.98,168.684,359.4945,163.91,354.09" style="stroke:#A80036;stroke-width:1.0;"/><text fill="#000000" font-family="sans-serif" font-size="13" lengthAdjust="spacing" textLength="7" x="157.4475" y="375.7112">1</text><text fill="#000000" font-family="sans-serif" font-size="13" lengthAdjust="spacing" textLength="18" x="152.1422" y="403.1305">0,1</text><!--MD5=[51c841fc0435634e5c62595363ee157e]
link ProductCostItem to CostAllocationItem--><path codeLine="46" d="M156,177.2 C156,190.77 156,207.4 156,223.83 " fill="none" id="ProductCostItem-to-CostAllocationItem" style="stroke:#A80036;stroke-width:1.0;"/><polygon fill="#A80036" points="156,236.9,160,230.9,156,224.9,152,230.9,156,236.9" style="stroke:#A80036;stroke-width:1.0;"/><text fill="#000000" font-family="sans-serif" font-size="13" lengthAdjust="spacing" textLength="18" x="136.2844" y="198.2168">0,1</text><text fill="#000000" font-family="sans-serif" font-size="13" lengthAdjust="spacing" textLength="7" x="148.5734" y="226.2887">1</text><!--MD5=[cc7a36649d007656ac86f6894d34b66d]
reverse link Product to ProductCostItem--><path codeLine="47" d="M156,68.59 C156,83.45 156,100.43 156,114.6 " fill="none" id="Product-backto-ProductCostItem" style="stroke:#A80036;stroke-width:1.0;"/><polygon fill="#A80036" points="156,55.14,152,61.14,156,67.14,160,61.14,156,55.14" style="stroke:#A80036;stroke-width:1.0;"/><text fill="#000000" font-family="sans-serif" font-size="13" lengthAdjust="spacing" textLength="7" x="148.1469" y="76.5121">1</text><text fill="#000000" font-family="sans-serif" font-size="13" lengthAdjust="spacing" textLength="7" x="148.2781" y="104.022">n</text><!--MD5=[ac046e7aeb82b06ec760946dfdbe66da]
reverse link CostItem to CloudProviderCostItem--><path codeLine="52" d="M396.11,374.18 C398.85,400.44 401.75,428.22 403.87,448.5 " fill="none" id="CostItem-backto-CloudProviderCostItem" style="stroke:#A80036;stroke-width:1.0;"/><polygon fill="none" points="389.13,374.7,394.01,354.09,403.05,373.25,389.13,374.7" style="stroke:#A80036;stroke-width:1.0;"/><!--MD5=[ac6c7d17853048f2c99c242391750bbb]
@startuml

class Product

class Service

class Instance
Instance "n" -up-* "1" Service

abstract CostItem {
[Amortized/OnDemand]Cost
Component
Environment
Partition
Tags
}
Instance "1" *- - "n" CostItem

package "Service Cost Allocation Data" as CostAllocationCSV {

class CostAllocationItem {
ProviderMeter[Name/Unit/Value][1/2/3/4/5]
ProviderTagSelector: Key/Cost/CloudTagSelector
ProviderCostAllocationType
ProviderCostAllocationKey
ProviderCostAllocationCloudTagSelector
}

class ProductCostItem {
ProductMeter[Name/Unit/Value]
}

class ConsumerCostItem {
ConsumerService
ConsumerInstance
ConsumerComponent
ConsumerEnvironment
ConsumerPartition
ConsumerTags
}
}
Instance "1"- -> "n" CostAllocationItem

ConsumerCostItem =up=|> CostItem
CostAllocationItem "1" *-down- "0,1" ConsumerCostItem

ProductCostItem "0,1" -down-* "1" CostAllocationItem
ProductCostItem "n"-up-* "1" Product

class CloudProviderCostItem {
Cost line: ResourceId, BillingMeter, ...
}
CloudProviderCostItem =up=|> CostItem

@enduml

PlantUML version 1.2022.1(Tue Feb 01 19:19:58 CET 2022)
(GPL source distribution)
Java Runtime: OpenJDK Runtime Environment
JVM: OpenJDK 64-Bit Server VM
Default Encoding: Cp1252
Language: en
Country: IE
--></g></svg>