<?xml version="1.0" encoding="UTF-8" standalone="no"?><svg xmlns="http://www.w3.org/2000/svg" xmlns:xlink="http://www.w3.org/1999/xlink" contentScriptType="application/ecmascript" contentStyleType="text/css" height="596px" preserveAspectRatio="none" style="width:547px;height:596px;background:#FFFFFF;" version="1.1" viewBox="0 0 547 596" width="547px" zoomAndPan="magnify"><defs><filter height="300%" id="f1wbb1q7ieujnh" width="300%" x="-1" y="-1"><feGaussianBlur result="blurOut" stdDeviation="2.0"/><feColorMatrix in="blurOut" result="blurOut2" type="matrix" values="0 0 0 0 0 0 0 0 0 0 0 0 0 0 0 0 0 0 .4 0"/><feOffset dx="4.0" dy="4.0" in="blurOut2" result="blurOut3"/><feBlend in="SourceGraphic" in2="blurOut3" mode="normal"/></filter></defs><g><!--MD5=[b612e5d23d7d3446c756baf21c953ec1]
cluster CostAllocationCSV--><polygon fill="#FFFFFF" filter="url(#f1wbb1q7ieujnh)" points="16,79,220,79,227,102.6094,332,102.6094,332,589,16,589,16,79" style="stroke:#000000;stroke-width:1.5;"/><line style="stroke:#000000;stroke-width:1.5;" x1="16" x2="227" y1="102.6094" y2="102.6094"/><text fill="#000000" font-family="sans-serif" font-size="14" font-weight="bold" lengthAdjust="spacing" textLength="198" x="20" y="95.5332">Service Cost Allocation Data</text><!--MD5=[8185f9e7a8208cff32031f28f70075f5]
class CostAllocationItem--><rect codeLine="22" fill="#FEFECE" filter="url(#f1wbb1q7ieujnh)" height="117.1797" id="CostAllocationItem" style="stroke:#A80036;stroke-width:1.5;" width="283" x="32.5" y="251"/><ellipse cx="118.25" cy="267" fill="#ADD1B2" rx="11" ry="11" style="stroke:#A80036;stroke-width:1.0;"/><path d="M120.25,263.5 Q120.4531,263 120.6875,262.75 Q120.9219,262.5 121.1875,262.5 Q121.6563,262.5 121.9531,262.7813 Q122.25,263.0625 122.25,263.7188 L122.25,265.2813 Q122.25,265.9375 121.9688,266.2188 Q121.6875,266.5 121.25,266.5 Q120.8594,266.5 120.6094,266.3281 Q120.3594,266.1563 120.25,265.7031 Q120.2031,265.3906 120.0313,265.2188 Q119.7188,264.8906 119.1563,264.7031 Q118.5938,264.5 118.0313,264.5 Q117.3281,264.5 116.7344,264.7813 Q116.1563,265.0625 115.7031,265.6875 Q115.25,266.3125 115.25,267.1719 L115.25,268.0938 Q115.25,269.125 116.0938,269.8125 Q116.9375,270.5 118.4375,270.5 Q119.3281,270.5 119.9531,270.2969 Q120.3125,270.1875 120.7188,269.8281 Q120.9844,269.625 121.125,269.5625 Q121.2656,269.5 121.4375,269.5 Q121.7656,269.5 122,269.7656 Q122.25,270.0156 122.25,270.375 Q122.25,270.7188 121.9063,271.125 Q121.4063,271.7188 120.6094,272.0469 Q119.5625,272.5 118.2813,272.5 Q116.7813,272.5 115.5781,271.9063 Q114.6094,271.4375 113.9219,270.4219 Q113.25,269.4063 113.25,268.2031 L113.25,267.1094 Q113.25,265.8594 113.8438,264.7656 Q114.4531,263.6719 115.5,263.0938 Q116.5625,262.5 117.75,262.5 Q118.4688,262.5 119.0938,262.75 Q119.7188,263 120.25,263.5 Z " fill="#000000"/><text fill="#000000" font-family="sans-serif" font-size="12" lengthAdjust="spacing" textLength="103" x="138.75" y="271.9102">CostAllocationItem</text><line style="stroke:#A80036;stroke-width:1.5;" x1="33.5" x2="314.5" y1="283" y2="283"/><text fill="#000000" font-family="sans-serif" font-size="11" lengthAdjust="spacing" textLength="170" x="38.5" y="298.4189">ProviderMeter[Names/Units/Values]</text><text fill="#000000" font-family="sans-serif" font-size="11" lengthAdjust="spacing" textLength="98" x="38.5" y="312.2549">ProviderTagSelector</text><text fill="#000000" font-family="sans-serif" font-size="11" lengthAdjust="spacing" textLength="271" x="38.5" y="326.0908">ProviderCostAllocationType: Key/CloudTagSelector/Cost</text><text fill="#000000" font-family="sans-serif" font-size="11" lengthAdjust="spacing" textLength="128" x="38.5" y="339.9268">ProviderCostAllocationKey</text><text fill="#000000" font-family="sans-serif" font-size="11" lengthAdjust="spacing" textLength="194" x="38.5" y="353.7627">ProviderCostAllocationCloudTagSelector</text><line style="stroke:#A80036;stroke-width:1.5;" x1="33.5" x2="314.5" y1="360.1797" y2="360.1797"/><!--MD5=[d4a63327ff2550724f02498610121399]
class ProductCostItem--><rect codeLine="30" fill="#FEFECE" filter="url(#f1wbb1q7ieujnh)" height="61.8359" id="ProductCostItem" style="stroke:#A80036;stroke-width:1.5;" width="161" x="93.5" y="115"/><ellipse cx="125.15" cy="131" fill="#ADD1B2" rx="11" ry="11" style="stroke:#A80036;stroke-width:1.0;"/><path d="M127.15,127.5 Q127.3531,127 127.5875,126.75 Q127.8219,126.5 128.0875,126.5 Q128.5563,126.5 128.8531,126.7813 Q129.15,127.0625 129.15,127.7188 L129.15,129.2813 Q129.15,129.9375 128.8688,130.2188 Q128.5875,130.5 128.15,130.5 Q127.7594,130.5 127.5094,130.3281 Q127.2594,130.1563 127.15,129.7031 Q127.1031,129.3906 126.9313,129.2188 Q126.6188,128.8906 126.0563,128.7031 Q125.4938,128.5 124.9313,128.5 Q124.2281,128.5 123.6344,128.7813 Q123.0563,129.0625 122.6031,129.6875 Q122.15,130.3125 122.15,131.1719 L122.15,132.0938 Q122.15,133.125 122.9938,133.8125 Q123.8375,134.5 125.3375,134.5 Q126.2281,134.5 126.8531,134.2969 Q127.2125,134.1875 127.6188,133.8281 Q127.8844,133.625 128.025,133.5625 Q128.1656,133.5 128.3375,133.5 Q128.6656,133.5 128.9,133.7656 Q129.15,134.0156 129.15,134.375 Q129.15,134.7188 128.8063,135.125 Q128.3063,135.7188 127.5094,136.0469 Q126.4625,136.5 125.1813,136.5 Q123.6813,136.5 122.4781,135.9063 Q121.5094,135.4375 120.8219,134.4219 Q120.15,133.4063 120.15,132.2031 L120.15,131.1094 Q120.15,129.8594 120.7438,128.7656 Q121.3531,127.6719 122.4,127.0938 Q123.4625,126.5 124.65,126.5 Q125.3688,126.5 125.9938,126.75 Q126.6188,127 127.15,127.5 Z " fill="#000000"/><text fill="#000000" font-family="sans-serif" font-size="12" lengthAdjust="spacing" textLength="92" x="142.85" y="135.9102">ProductCostItem</text><line style="stroke:#A80036;stroke-width:1.5;" x1="94.5" x2="253.5" y1="147" y2="147"/><text fill="#000000" font-family="sans-serif" font-size="11" lengthAdjust="spacing" textLength="149" x="99.5" y="162.4189">ProductMeter[Name/Unit/Value]</text><line style="stroke:#A80036;stroke-width:1.5;" x1="94.5" x2="253.5" y1="168.8359" y2="168.8359"/><!--MD5=[b35fb6a18a7e3916e657c07801ef3516]
class ConsumerCostItem--><rect codeLine="34" fill="#FEFECE" filter="url(#f1wbb1q7ieujnh)" height="131.0156" id="ConsumerCostItem" style="stroke:#A80036;stroke-width:1.5;" width="141" x="137.5" y="442"/><ellipse cx="152.5" cy="458" fill="#ADD1B2" rx="11" ry="11" style="stroke:#A80036;stroke-width:1.0;"/><path d="M154.5,454.5 Q154.7031,454 154.9375,453.75 Q155.1719,453.5 155.4375,453.5 Q155.9063,453.5 156.2031,453.7813 Q156.5,454.0625 156.5,454.7188 L156.5,456.2813 Q156.5,456.9375 156.2188,457.2188 Q155.9375,457.5 155.5,457.5 Q155.1094,457.5 154.8594,457.3281 Q154.6094,457.1563 154.5,456.7031 Q154.4531,456.3906 154.2813,456.2188 Q153.9688,455.8906 153.4063,455.7031 Q152.8438,455.5 152.2813,455.5 Q151.5781,455.5 150.9844,455.7813 Q150.4063,456.0625 149.9531,456.6875 Q149.5,457.3125 149.5,458.1719 L149.5,459.0938 Q149.5,460.125 150.3438,460.8125 Q151.1875,461.5 152.6875,461.5 Q153.5781,461.5 154.2031,461.2969 Q154.5625,461.1875 154.9688,460.8281 Q155.2344,460.625 155.375,460.5625 Q155.5156,460.5 155.6875,460.5 Q156.0156,460.5 156.25,460.7656 Q156.5,461.0156 156.5,461.375 Q156.5,461.7188 156.1563,462.125 Q155.6563,462.7188 154.8594,463.0469 Q153.8125,463.5 152.5313,463.5 Q151.0313,463.5 149.8281,462.9063 Q148.8594,462.4375 148.1719,461.4219 Q147.5,460.4063 147.5,459.2031 L147.5,458.1094 Q147.5,456.8594 148.0938,455.7656 Q148.7031,454.6719 149.75,454.0938 Q150.8125,453.5 152,453.5 Q152.7188,453.5 153.3438,453.75 Q153.9688,454 154.5,454.5 Z " fill="#000000"/><text fill="#000000" font-family="sans-serif" font-size="12" lengthAdjust="spacing" textLength="109" x="166.5" y="462.9102">ConsumerCostItem</text><line style="stroke:#A80036;stroke-width:1.5;" x1="138.5" x2="277.5" y1="474" y2="474"/><text fill="#000000" font-family="sans-serif" font-size="11" lengthAdjust="spacing" textLength="86" x="143.5" y="489.4189">ConsumerService</text><text fill="#000000" font-family="sans-serif" font-size="11" lengthAdjust="spacing" textLength="90" x="143.5" y="503.2549">ConsumerInstance</text><text fill="#000000" font-family="sans-serif" font-size="11" lengthAdjust="spacing" textLength="103" x="143.5" y="517.0908">ConsumerComponent</text><text fill="#000000" font-family="sans-serif" font-size="11" lengthAdjust="spacing" textLength="108" x="143.5" y="530.9268">ConsumerEnvironment</text><text fill="#000000" font-family="sans-serif" font-size="11" lengthAdjust="spacing" textLength="87" x="143.5" y="544.7627">ConsumerPartition</text><text fill="#000000" font-family="sans-serif" font-size="11" lengthAdjust="spacing" textLength="73" x="143.5" y="558.5986">ConsumerTags</text><line style="stroke:#A80036;stroke-width:1.5;" x1="138.5" x2="277.5" y1="565.0156" y2="565.0156"/><!--MD5=[72136138052d025cffdce3c22fbd185f]
class Product--><rect codeLine="2" fill="#FEFECE" filter="url(#f1wbb1q7ieujnh)" height="48" id="Product" style="stroke:#A80036;stroke-width:1.5;" width="74" x="137" y="7"/><ellipse cx="152" cy="23" fill="#ADD1B2" rx="11" ry="11" style="stroke:#A80036;stroke-width:1.0;"/><path d="M154,19.5 Q154.2031,19 154.4375,18.75 Q154.6719,18.5 154.9375,18.5 Q155.4063,18.5 155.7031,18.7813 Q156,19.0625 156,19.7188 L156,21.2813 Q156,21.9375 155.7188,22.2188 Q155.4375,22.5 155,22.5 Q154.6094,22.5 154.3594,22.3281 Q154.1094,22.1563 154,21.7031 Q153.9531,21.3906 153.7813,21.2188 Q153.4688,20.8906 152.9063,20.7031 Q152.3438,20.5 151.7813,20.5 Q151.0781,20.5 150.4844,20.7813 Q149.9063,21.0625 149.4531,21.6875 Q149,22.3125 149,23.1719 L149,24.0938 Q149,25.125 149.8438,25.8125 Q150.6875,26.5 152.1875,26.5 Q153.0781,26.5 153.7031,26.2969 Q154.0625,26.1875 154.4688,25.8281 Q154.7344,25.625 154.875,25.5625 Q155.0156,25.5 155.1875,25.5 Q155.5156,25.5 155.75,25.7656 Q156,26.0156 156,26.375 Q156,26.7188 155.6563,27.125 Q155.1563,27.7188 154.3594,28.0469 Q153.3125,28.5 152.0313,28.5 Q150.5313,28.5 149.3281,27.9063 Q148.3594,27.4375 147.6719,26.4219 Q147,25.4063 147,24.2031 L147,23.1094 Q147,21.8594 147.5938,20.7656 Q148.2031,19.6719 149.25,19.0938 Q150.3125,18.5 151.5,18.5 Q152.2188,18.5 152.8438,18.75 Q153.4688,19 154,19.5 Z " fill="#000000"/><text fill="#000000" font-family="sans-serif" font-size="12" lengthAdjust="spacing" textLength="42" x="166" y="27.9102">Product</text><line style="stroke:#A80036;stroke-width:1.5;" x1="138" x2="210" y1="39" y2="39"/><line style="stroke:#A80036;stroke-width:1.5;" x1="138" x2="210" y1="47" y2="47"/><!--MD5=[dbb8b4f13c7b21394f9d757e58732f45]
class Service--><rect codeLine="4" fill="#FEFECE" filter="url(#f1wbb1q7ieujnh)" height="48" id="Service" style="stroke:#A80036;stroke-width:1.5;" width="72" x="369" y="7"/><ellipse cx="384" cy="23" fill="#ADD1B2" rx="11" ry="11" style="stroke:#A80036;stroke-width:1.0;"/><path d="M386,19.5 Q386.2031,19 386.4375,18.75 Q386.6719,18.5 386.9375,18.5 Q387.4063,18.5 387.7031,18.7813 Q388,19.0625 388,19.7188 L388,21.2813 Q388,21.9375 387.7188,22.2188 Q387.4375,22.5 387,22.5 Q386.6094,22.5 386.3594,22.3281 Q386.1094,22.1563 386,21.7031 Q385.9531,21.3906 385.7813,21.2188 Q385.4688,20.8906 384.9063,20.7031 Q384.3438,20.5 383.7813,20.5 Q383.0781,20.5 382.4844,20.7813 Q381.9063,21.0625 381.4531,21.6875 Q381,22.3125 381,23.1719 L381,24.0938 Q381,25.125 381.8438,25.8125 Q382.6875,26.5 384.1875,26.5 Q385.0781,26.5 385.7031,26.2969 Q386.0625,26.1875 386.4688,25.8281 Q386.7344,25.625 386.875,25.5625 Q387.0156,25.5 387.1875,25.5 Q387.5156,25.5 387.75,25.7656 Q388,26.0156 388,26.375 Q388,26.7188 387.6563,27.125 Q387.1563,27.7188 386.3594,28.0469 Q385.3125,28.5 384.0313,28.5 Q382.5313,28.5 381.3281,27.9063 Q380.3594,27.4375 379.6719,26.4219 Q379,25.4063 379,24.2031 L379,23.1094 Q379,21.8594 379.5938,20.7656 Q380.2031,19.6719 381.25,19.0938 Q382.3125,18.5 383.5,18.5 Q384.2188,18.5 384.8438,18.75 Q385.4688,19 386,19.5 Z " fill="#000000"/><text fill="#000000" font-family="sans-serif" font-size="12" lengthAdjust="spacing" textLength="40" x="398" y="27.9102">Service</text><line style="stroke:#A80036;stroke-width:1.5;" x1="370" x2="440" y1="39" y2="39"/><line style="stroke:#A80036;stroke-width:1.5;" x1="370" x2="440" y1="47" y2="47"/><!--MD5=[dbfd7680984eb54d794e10dee7f3936a]
class Instance--><rect codeLine="6" fill="#FEFECE" filter="url(#f1wbb1q7ieujnh)" height="48" id="Instance" style="stroke:#A80036;stroke-width:1.5;" width="79" x="365.5" y="122"/><ellipse cx="380.5" cy="138" fill="#ADD1B2" rx="11" ry="11" style="stroke:#A80036;stroke-width:1.0;"/><path d="M382.5,134.5 Q382.7031,134 382.9375,133.75 Q383.1719,133.5 383.4375,133.5 Q383.9063,133.5 384.2031,133.7813 Q384.5,134.0625 384.5,134.7188 L384.5,136.2813 Q384.5,136.9375 384.2188,137.2188 Q383.9375,137.5 383.5,137.5 Q383.1094,137.5 382.8594,137.3281 Q382.6094,137.1563 382.5,136.7031 Q382.4531,136.3906 382.2813,136.2188 Q381.9688,135.8906 381.4063,135.7031 Q380.8438,135.5 380.2813,135.5 Q379.5781,135.5 378.9844,135.7813 Q378.4063,136.0625 377.9531,136.6875 Q377.5,137.3125 377.5,138.1719 L377.5,139.0938 Q377.5,140.125 378.3438,140.8125 Q379.1875,141.5 380.6875,141.5 Q381.5781,141.5 382.2031,141.2969 Q382.5625,141.1875 382.9688,140.8281 Q383.2344,140.625 383.375,140.5625 Q383.5156,140.5 383.6875,140.5 Q384.0156,140.5 384.25,140.7656 Q384.5,141.0156 384.5,141.375 Q384.5,141.7188 384.1563,142.125 Q383.6563,142.7188 382.8594,143.0469 Q381.8125,143.5 380.5313,143.5 Q379.0313,143.5 377.8281,142.9063 Q376.8594,142.4375 376.1719,141.4219 Q375.5,140.4063 375.5,139.2031 L375.5,138.1094 Q375.5,136.8594 376.0938,135.7656 Q376.7031,134.6719 377.75,134.0938 Q378.8125,133.5 380,133.5 Q380.7188,133.5 381.3438,133.75 Q381.9688,134 382.5,134.5 Z " fill="#000000"/><text fill="#000000" font-family="sans-serif" font-size="12" lengthAdjust="spacing" textLength="47" x="394.5" y="142.9102">Instance</text><line style="stroke:#A80036;stroke-width:1.5;" x1="366.5" x2="443.5" y1="154" y2="154"/><line style="stroke:#A80036;stroke-width:1.5;" x1="366.5" x2="443.5" y1="162" y2="162"/><!--MD5=[5b1d549712648da210eaf378391d698f]
class CostItem--><rect codeLine="9" fill="#FEFECE" filter="url(#f1wbb1q7ieujnh)" height="144.8516" id="CostItem" style="stroke:#A80036;stroke-width:1.5;" width="145" x="350.5" y="237"/><ellipse cx="393.85" cy="253" fill="#A9DCDF" rx="11" ry="11" style="stroke:#A80036;stroke-width:1.0;"/><path d="M395.6,254.5 L392.3031,254.5 L391.8656,255.5 L391.8656,255.5 L392.3344,255.5 L392.85,256.125 L392.85,256.5 L392.85,256.875 L392.3344,257.5 L391.8656,257.5 L389.975,257.5 L389.3656,257.5 L388.85,256.875 L388.85,256.5 L388.85,256.125 L389.3656,255.5 L389.975,255.5 L392.2875,249.5 L391.4125,249.5 L390.3656,249.5 L389.85,248.875 L389.85,248.5 L389.85,248.125 L390.3656,247.5 L391.4125,247.5 L395.0844,247.5 L397.7719,255.5 L398.3344,255.5 L398.3344,255.5 L398.85,256.125 L398.85,256.5 L398.85,256.875 L398.3344,257.5 L397.7719,257.5 L395.8813,257.5 L395.3656,257.5 L394.85,256.875 L394.85,256.5 L394.85,256.125 L395.3656,255.5 L395.8813,255.5 L395.8813,255.5 L395.6,254.5 Z M395.0531,252.5 L393.85,248.9219 L392.8188,252.5 L395.0531,252.5 Z " fill="#000000"/><text fill="#000000" font-family="sans-serif" font-size="12" font-style="italic" lengthAdjust="spacing" textLength="50" x="414.15" y="257.9102">CostItem</text><line style="stroke:#A80036;stroke-width:1.5;" x1="351.5" x2="494.5" y1="269" y2="269"/><text fill="#000000" font-family="sans-serif" font-size="11" lengthAdjust="spacing" textLength="22" x="356.5" y="284.4189">Date</text><text fill="#000000" font-family="sans-serif" font-size="11" lengthAdjust="spacing" textLength="133" x="356.5" y="298.2549">[Amortized/OnDemand]Cost</text><text fill="#000000" font-family="sans-serif" font-size="11" lengthAdjust="spacing" textLength="45" x="356.5" y="312.0908">Currency</text><text fill="#000000" font-family="sans-serif" font-size="11" lengthAdjust="spacing" textLength="54" x="356.5" y="325.9268">Component</text><text fill="#000000" font-family="sans-serif" font-size="11" lengthAdjust="spacing" textLength="59" x="356.5" y="339.7627">Environment</text><text fill="#000000" font-family="sans-serif" font-size="11" lengthAdjust="spacing" textLength="38" x="356.5" y="353.5986">Partition</text><text fill="#000000" font-family="sans-serif" font-size="11" lengthAdjust="spacing" textLength="24" x="356.5" y="367.4346">Tags</text><line style="stroke:#A80036;stroke-width:1.5;" x1="351.5" x2="494.5" y1="373.8516" y2="373.8516"/><!--MD5=[9dd47dee169cd07d10b1071186a45b1a]
class CloudCostItem--><rect codeLine="51" fill="#FEFECE" filter="url(#f1wbb1q7ieujnh)" height="61.8359" id="CloudCostItem" style="stroke:#A80036;stroke-width:1.5;" width="185" x="348.5" y="476.5"/><ellipse cx="395.25" cy="492.5" fill="#ADD1B2" rx="11" ry="11" style="stroke:#A80036;stroke-width:1.0;"/><path d="M397.25,489 Q397.4531,488.5 397.6875,488.25 Q397.9219,488 398.1875,488 Q398.6563,488 398.9531,488.2813 Q399.25,488.5625 399.25,489.2188 L399.25,490.7813 Q399.25,491.4375 398.9688,491.7188 Q398.6875,492 398.25,492 Q397.8594,492 397.6094,491.8281 Q397.3594,491.6563 397.25,491.2031 Q397.2031,490.8906 397.0313,490.7188 Q396.7188,490.3906 396.1563,490.2031 Q395.5938,490 395.0313,490 Q394.3281,490 393.7344,490.2813 Q393.1563,490.5625 392.7031,491.1875 Q392.25,491.8125 392.25,492.6719 L392.25,493.5938 Q392.25,494.625 393.0938,495.3125 Q393.9375,496 395.4375,496 Q396.3281,496 396.9531,495.7969 Q397.3125,495.6875 397.7188,495.3281 Q397.9844,495.125 398.125,495.0625 Q398.2656,495 398.4375,495 Q398.7656,495 399,495.2656 Q399.25,495.5156 399.25,495.875 Q399.25,496.2188 398.9063,496.625 Q398.4063,497.2188 397.6094,497.5469 Q396.5625,498 395.2813,498 Q393.7813,498 392.5781,497.4063 Q391.6094,496.9375 390.9219,495.9219 Q390.25,494.9063 390.25,493.7031 L390.25,492.6094 Q390.25,491.3594 390.8438,490.2656 Q391.4531,489.1719 392.5,488.5938 Q393.5625,488 394.75,488 Q395.4688,488 396.0938,488.25 Q396.7188,488.5 397.25,489 Z " fill="#000000"/><text fill="#000000" font-family="sans-serif" font-size="12" lengthAdjust="spacing" textLength="83" x="415.75" y="497.4102">CloudCostItem</text><line style="stroke:#A80036;stroke-width:1.5;" x1="349.5" x2="532.5" y1="508.5" y2="508.5"/><line style="stroke:#A80036;stroke-width:1.5;" x1="349.5" x2="532.5" y1="516.5" y2="516.5"/><text fill="#000000" font-family="sans-serif" font-size="11" lengthAdjust="spacing" textLength="173" x="354.5" y="531.9189">Line (from cloud provider cost data)</text><!--MD5=[da6bf26049017d36b72aba462b5bdd3d]
reverse link Service to Instance--><path codeLine="7" d="M405,68.17 C405,85.78 405,106.44 405,121.89 " fill="none" id="Service-backto-Instance" style="stroke:#A80036;stroke-width:1.0;"/><polygon fill="#A80036" points="405,55.14,401,61.14,405,67.14,409,61.14,405,55.14" style="stroke:#A80036;stroke-width:1.0;"/><text fill="#000000" font-family="sans-serif" font-size="13" lengthAdjust="spacing" textLength="7" x="397.1469" y="76.5121">1</text><text fill="#000000" font-family="sans-serif" font-size="13" lengthAdjust="spacing" textLength="7" x="397.1031" y="111.202">n</text><!--MD5=[56b5b3c6f23d68d9aaf3cfe6cf8a2ec5]
reverse link Instance to CostItem--><path codeLine="18" d="M409.03,183.12 C410.79,198.98 412.94,218.2 415.01,236.77 " fill="none" id="Instance-backto-CostItem" style="stroke:#A80036;stroke-width:1.0;"/><polygon fill="#A80036" points="407.58,170.14,404.2709,176.547,408.9124,182.0658,412.2215,175.6588,407.58,170.14" style="stroke:#A80036;stroke-width:1.0;"/><text fill="#000000" font-family="sans-serif" font-size="13" lengthAdjust="spacing" textLength="7" x="400.3558" y="191.5121">1</text><text fill="#000000" font-family="sans-serif" font-size="13" lengthAdjust="spacing" textLength="7" x="406.8251" y="225.9656">n</text><!--MD5=[4f939b22b2f5c1df8de964ff0b4e1358]
link Instance to CostAllocationItem--><path codeLine="43" d="M371.9,170.14 C342.89,190.42 299.42,220.82 260.59,247.96 " fill="none" id="Instance-to-CostAllocationItem" style="stroke:#A80036;stroke-width:1.0;"/><polygon fill="#A80036" points="256.37,250.91,266.0365,249.0235,260.4655,248.0417,261.4473,242.4707,256.37,250.91" style="stroke:#A80036;stroke-width:1.0;"/><text fill="#000000" font-family="sans-serif" font-size="13" lengthAdjust="spacing" textLength="7" x="355.9788" y="191.5121">1</text><text fill="#000000" font-family="sans-serif" font-size="13" lengthAdjust="spacing" textLength="7" x="258.9823" y="240.2999">n</text><!--MD5=[514c0ba441db9c585dc31c406542939e]
reverse link CostItem to ConsumerCostItem--><path codeLine="45" d="M335.29,390.46 C316.4,407.68 296.67,425.67 278.53,442.2 " fill="none" id="CostItem-backto-ConsumerCostItem" style="stroke:#A80036;stroke-width:1.0;"/><polygon fill="none" points="330.71,385.16,350.21,376.86,340.15,395.5,330.71,385.16" style="stroke:#A80036;stroke-width:1.0;"/><!--MD5=[8b8c0fdfbd2dd8d8d91cad9f7ec18f7f]
reverse link CostAllocationItem to ConsumerCostItem--><path codeLine="46" d="M186.29,381.32 C189.72,401.13 193.44,422.54 196.8,441.96 " fill="none" id="CostAllocationItem-backto-ConsumerCostItem" style="stroke:#A80036;stroke-width:1.0;"/><polygon fill="#A80036" points="184.02,368.25,181.1013,374.844,186.0655,380.0744,188.9842,373.4804,184.02,368.25" style="stroke:#A80036;stroke-width:1.0;"/><text fill="#000000" font-family="sans-serif" font-size="13" lengthAdjust="spacing" textLength="7" x="177.7739" y="389.473">1</text><text fill="#000000" font-family="sans-serif" font-size="13" lengthAdjust="spacing" textLength="18" x="176.4644" y="430.9715">0,1</text><!--MD5=[51c841fc0435634e5c62595363ee157e]
link ProductCostItem to CostAllocationItem--><path codeLine="48" d="M174,177.38 C174,194.48 174,216.6 174,237.78 " fill="none" id="ProductCostItem-to-CostAllocationItem" style="stroke:#A80036;stroke-width:1.0;"/><polygon fill="#A80036" points="174,250.8,178,244.8,174,238.8,170,244.8,174,250.8" style="stroke:#A80036;stroke-width:1.0;"/><text fill="#000000" font-family="sans-serif" font-size="13" lengthAdjust="spacing" textLength="18" x="154.2844" y="198.4311">0,1</text><text fill="#000000" font-family="sans-serif" font-size="13" lengthAdjust="spacing" textLength="7" x="166.5734" y="240.1765">1</text><!--MD5=[cc7a36649d007656ac86f6894d34b66d]
reverse link Product to ProductCostItem--><path codeLine="49" d="M174,68.59 C174,83.45 174,100.43 174,114.6 " fill="none" id="Product-backto-ProductCostItem" style="stroke:#A80036;stroke-width:1.0;"/><polygon fill="#A80036" points="174,55.14,170,61.14,174,67.14,178,61.14,174,55.14" style="stroke:#A80036;stroke-width:1.0;"/><text fill="#000000" font-family="sans-serif" font-size="13" lengthAdjust="spacing" textLength="7" x="166.1469" y="76.5121">1</text><text fill="#000000" font-family="sans-serif" font-size="13" lengthAdjust="spacing" textLength="7" x="166.2781" y="104.022">n</text><!--MD5=[93f24e060c9cfe747fd3d5faeb02cfd8]
reverse link CostItem to CloudCostItem--><path codeLine="54" d="M431.43,402.27 C433.88,428.99 436.39,456.32 438.23,476.29 " fill="none" id="CostItem-backto-CloudCostItem" style="stroke:#A80036;stroke-width:1.0;"/><polygon fill="none" points="424.43,402.65,429.57,382.09,438.37,401.37,424.43,402.65" style="stroke:#A80036;stroke-width:1.0;"/><!--MD5=[588c999e76174c2da17338c5814aeb1e]
@startuml

class Product

class Service

class Instance
Instance "n" -up-* "1" Service

abstract CostItem {
Date
[Amortized/OnDemand]Cost
Currency
Component
Environment
Partition
Tags
}
Instance "1" *- - "n" CostItem

package "Service Cost Allocation Data" as CostAllocationCSV {

class CostAllocationItem {
ProviderMeter[Names/Units/Values]
ProviderTagSelector
ProviderCostAllocationType: Key/CloudTagSelector/Cost
ProviderCostAllocationKey
ProviderCostAllocationCloudTagSelector
}

class ProductCostItem {
ProductMeter[Name/Unit/Value]
}

class ConsumerCostItem {
ConsumerService
ConsumerInstance
ConsumerComponent
ConsumerEnvironment
ConsumerPartition
ConsumerTags
}
}
Instance "1"- -> "n" CostAllocationItem

ConsumerCostItem =up=|> CostItem
CostAllocationItem "1" *-down- "0,1" ConsumerCostItem

ProductCostItem "0,1" -down-* "1" CostAllocationItem
ProductCostItem "n"-up-* "1" Product

class CloudCostItem {
Line (from cloud provider cost data)
}
CloudCostItem =up=|> CostItem

@enduml

PlantUML version 1.2022.1(Tue Feb 01 19:19:58 CET 2022)
(GPL source distribution)
Java Runtime: OpenJDK Runtime Environment
JVM: OpenJDK 64-Bit Server VM
Default Encoding: Cp1252
Language: en
Country: IE
--></g></svg>