<?xml version="1.0" encoding="UTF-8" standalone="no"?><svg xmlns="http://www.w3.org/2000/svg" xmlns:xlink="http://www.w3.org/1999/xlink" contentScriptType="application/ecmascript" contentStyleType="text/css" height="582px" preserveAspectRatio="none" style="width:479px;height:582px;background:#FFFFFF;" version="1.1" viewBox="0 0 479 582" width="479px" zoomAndPan="magnify"><defs><filter height="300%" id="f1f53plrcyxstg" width="300%" x="-1" y="-1"><feGaussianBlur result="blurOut" stdDeviation="2.0"/><feColorMatrix in="blurOut" result="blurOut2" type="matrix" values="0 0 0 0 0 0 0 0 0 0 0 0 0 0 0 0 0 0 .4 0"/><feOffset dx="4.0" dy="4.0" in="blurOut2" result="blurOut3"/><feBlend in="SourceGraphic" in2="blurOut3" mode="normal"/></filter></defs><g><!--MD5=[b612e5d23d7d3446c756baf21c953ec1]
cluster CostAllocationCSV--><polygon fill="#FFFFFF" filter="url(#f1f53plrcyxstg)" points="16,79,220,79,227,102.6094,260,102.6094,260,575,16,575,16,79" style="stroke:#000000;stroke-width:1.5;"/><line style="stroke:#000000;stroke-width:1.5;" x1="16" x2="227" y1="102.6094" y2="102.6094"/><text fill="#000000" font-family="sans-serif" font-size="14" font-weight="bold" lengthAdjust="spacing" textLength="198" x="20" y="95.5332">Service Cost Allocation Data</text><!--MD5=[8185f9e7a8208cff32031f28f70075f5]
class CostAllocationItem--><rect codeLine="20" fill="#FEFECE" filter="url(#f1f53plrcyxstg)" height="89.5078" id="CostAllocationItem" style="stroke:#A80036;stroke-width:1.5;" width="212" x="32" y="264.5"/><ellipse cx="82.25" cy="280.5" fill="#ADD1B2" rx="11" ry="11" style="stroke:#A80036;stroke-width:1.0;"/><path d="M84.25,277 Q84.4531,276.5 84.6875,276.25 Q84.9219,276 85.1875,276 Q85.6563,276 85.9531,276.2813 Q86.25,276.5625 86.25,277.2188 L86.25,278.7813 Q86.25,279.4375 85.9688,279.7188 Q85.6875,280 85.25,280 Q84.8594,280 84.6094,279.8281 Q84.3594,279.6563 84.25,279.2031 Q84.2031,278.8906 84.0313,278.7188 Q83.7188,278.3906 83.1563,278.2031 Q82.5938,278 82.0313,278 Q81.3281,278 80.7344,278.2813 Q80.1563,278.5625 79.7031,279.1875 Q79.25,279.8125 79.25,280.6719 L79.25,281.5938 Q79.25,282.625 80.0938,283.3125 Q80.9375,284 82.4375,284 Q83.3281,284 83.9531,283.7969 Q84.3125,283.6875 84.7188,283.3281 Q84.9844,283.125 85.125,283.0625 Q85.2656,283 85.4375,283 Q85.7656,283 86,283.2656 Q86.25,283.5156 86.25,283.875 Q86.25,284.2188 85.9063,284.625 Q85.4063,285.2188 84.6094,285.5469 Q83.5625,286 82.2813,286 Q80.7813,286 79.5781,285.4063 Q78.6094,284.9375 77.9219,283.9219 Q77.25,282.9063 77.25,281.7031 L77.25,280.6094 Q77.25,279.3594 77.8438,278.2656 Q78.4531,277.1719 79.5,276.5938 Q80.5625,276 81.75,276 Q82.4688,276 83.0938,276.25 Q83.7188,276.5 84.25,277 Z " fill="#000000"/><text fill="#000000" font-family="sans-serif" font-size="12" lengthAdjust="spacing" textLength="103" x="102.75" y="285.4102">CostAllocationItem</text><line style="stroke:#A80036;stroke-width:1.5;" x1="33" x2="243" y1="296.5" y2="296.5"/><text fill="#000000" font-family="sans-serif" font-size="11" lengthAdjust="spacing" textLength="98" x="38" y="311.9189">ProviderTagSelector</text><text fill="#000000" font-family="sans-serif" font-size="11" lengthAdjust="spacing" textLength="200" x="38" y="325.7549">ProviderMeter[Name/Unit/Value][1/2/3/4/5]</text><text fill="#000000" font-family="sans-serif" font-size="11" lengthAdjust="spacing" textLength="128" x="38" y="339.5908">ProviderCostAllocationKey</text><line style="stroke:#A80036;stroke-width:1.5;" x1="33" x2="243" y1="346.0078" y2="346.0078"/><!--MD5=[d4a63327ff2550724f02498610121399]
class ProductCostItem--><rect codeLine="26" fill="#FEFECE" filter="url(#f1f53plrcyxstg)" height="75.6719" id="ProductCostItem" style="stroke:#A80036;stroke-width:1.5;" width="161" x="57.5" y="115"/><ellipse cx="89.15" cy="131" fill="#ADD1B2" rx="11" ry="11" style="stroke:#A80036;stroke-width:1.0;"/><path d="M91.15,127.5 Q91.3531,127 91.5875,126.75 Q91.8219,126.5 92.0875,126.5 Q92.5563,126.5 92.8531,126.7813 Q93.15,127.0625 93.15,127.7188 L93.15,129.2813 Q93.15,129.9375 92.8688,130.2188 Q92.5875,130.5 92.15,130.5 Q91.7594,130.5 91.5094,130.3281 Q91.2594,130.1563 91.15,129.7031 Q91.1031,129.3906 90.9313,129.2188 Q90.6188,128.8906 90.0563,128.7031 Q89.4938,128.5 88.9313,128.5 Q88.2281,128.5 87.6344,128.7813 Q87.0563,129.0625 86.6031,129.6875 Q86.15,130.3125 86.15,131.1719 L86.15,132.0938 Q86.15,133.125 86.9938,133.8125 Q87.8375,134.5 89.3375,134.5 Q90.2281,134.5 90.8531,134.2969 Q91.2125,134.1875 91.6188,133.8281 Q91.8844,133.625 92.025,133.5625 Q92.1656,133.5 92.3375,133.5 Q92.6656,133.5 92.9,133.7656 Q93.15,134.0156 93.15,134.375 Q93.15,134.7188 92.8063,135.125 Q92.3063,135.7188 91.5094,136.0469 Q90.4625,136.5 89.1813,136.5 Q87.6813,136.5 86.4781,135.9063 Q85.5094,135.4375 84.8219,134.4219 Q84.15,133.4063 84.15,132.2031 L84.15,131.1094 Q84.15,129.8594 84.7438,128.7656 Q85.3531,127.6719 86.4,127.0938 Q87.4625,126.5 88.65,126.5 Q89.3688,126.5 89.9938,126.75 Q90.6188,127 91.15,127.5 Z " fill="#000000"/><text fill="#000000" font-family="sans-serif" font-size="12" lengthAdjust="spacing" textLength="92" x="106.85" y="135.9102">ProductCostItem</text><line style="stroke:#A80036;stroke-width:1.5;" x1="58.5" x2="217.5" y1="147" y2="147"/><text fill="#000000" font-family="sans-serif" font-size="11" lengthAdjust="spacing" textLength="37" x="63.5" y="162.4189">Product</text><text fill="#000000" font-family="sans-serif" font-size="11" lengthAdjust="spacing" textLength="149" x="63.5" y="176.2549">ProductMeter[Name/Unit/Value]</text><line style="stroke:#A80036;stroke-width:1.5;" x1="58.5" x2="217.5" y1="182.6719" y2="182.6719"/><!--MD5=[b35fb6a18a7e3916e657c07801ef3516]
class ConsumerCostItem--><rect codeLine="31" fill="#FEFECE" filter="url(#f1f53plrcyxstg)" height="131.0156" id="ConsumerCostItem" style="stroke:#A80036;stroke-width:1.5;" width="141" x="83.5" y="428"/><ellipse cx="98.5" cy="444" fill="#ADD1B2" rx="11" ry="11" style="stroke:#A80036;stroke-width:1.0;"/><path d="M100.5,440.5 Q100.7031,440 100.9375,439.75 Q101.1719,439.5 101.4375,439.5 Q101.9063,439.5 102.2031,439.7813 Q102.5,440.0625 102.5,440.7188 L102.5,442.2813 Q102.5,442.9375 102.2188,443.2188 Q101.9375,443.5 101.5,443.5 Q101.1094,443.5 100.8594,443.3281 Q100.6094,443.1563 100.5,442.7031 Q100.4531,442.3906 100.2813,442.2188 Q99.9688,441.8906 99.4063,441.7031 Q98.8438,441.5 98.2813,441.5 Q97.5781,441.5 96.9844,441.7813 Q96.4063,442.0625 95.9531,442.6875 Q95.5,443.3125 95.5,444.1719 L95.5,445.0938 Q95.5,446.125 96.3438,446.8125 Q97.1875,447.5 98.6875,447.5 Q99.5781,447.5 100.2031,447.2969 Q100.5625,447.1875 100.9688,446.8281 Q101.2344,446.625 101.375,446.5625 Q101.5156,446.5 101.6875,446.5 Q102.0156,446.5 102.25,446.7656 Q102.5,447.0156 102.5,447.375 Q102.5,447.7188 102.1563,448.125 Q101.6563,448.7188 100.8594,449.0469 Q99.8125,449.5 98.5313,449.5 Q97.0313,449.5 95.8281,448.9063 Q94.8594,448.4375 94.1719,447.4219 Q93.5,446.4063 93.5,445.2031 L93.5,444.1094 Q93.5,442.8594 94.0938,441.7656 Q94.7031,440.6719 95.75,440.0938 Q96.8125,439.5 98,439.5 Q98.7188,439.5 99.3438,439.75 Q99.9688,440 100.5,440.5 Z " fill="#000000"/><text fill="#000000" font-family="sans-serif" font-size="12" lengthAdjust="spacing" textLength="109" x="112.5" y="448.9102">ConsumerCostItem</text><line style="stroke:#A80036;stroke-width:1.5;" x1="84.5" x2="223.5" y1="460" y2="460"/><text fill="#000000" font-family="sans-serif" font-size="11" lengthAdjust="spacing" textLength="86" x="89.5" y="475.4189">ConsumerService</text><text fill="#000000" font-family="sans-serif" font-size="11" lengthAdjust="spacing" textLength="90" x="89.5" y="489.2549">ConsumerInstance</text><text fill="#000000" font-family="sans-serif" font-size="11" lengthAdjust="spacing" textLength="103" x="89.5" y="503.0908">ConsumerComponent</text><text fill="#000000" font-family="sans-serif" font-size="11" lengthAdjust="spacing" textLength="108" x="89.5" y="516.9268">ConsumerEnvironment</text><text fill="#000000" font-family="sans-serif" font-size="11" lengthAdjust="spacing" textLength="87" x="89.5" y="530.7627">ConsumerPartition</text><text fill="#000000" font-family="sans-serif" font-size="11" lengthAdjust="spacing" textLength="73" x="89.5" y="544.5986">ConsumerTags</text><line style="stroke:#A80036;stroke-width:1.5;" x1="84.5" x2="223.5" y1="551.0156" y2="551.0156"/><!--MD5=[72136138052d025cffdce3c22fbd185f]
class Product--><rect codeLine="2" fill="#FEFECE" filter="url(#f1f53plrcyxstg)" height="48" id="Product" style="stroke:#A80036;stroke-width:1.5;" width="74" x="101" y="7"/><ellipse cx="116" cy="23" fill="#ADD1B2" rx="11" ry="11" style="stroke:#A80036;stroke-width:1.0;"/><path d="M118,19.5 Q118.2031,19 118.4375,18.75 Q118.6719,18.5 118.9375,18.5 Q119.4063,18.5 119.7031,18.7813 Q120,19.0625 120,19.7188 L120,21.2813 Q120,21.9375 119.7188,22.2188 Q119.4375,22.5 119,22.5 Q118.6094,22.5 118.3594,22.3281 Q118.1094,22.1563 118,21.7031 Q117.9531,21.3906 117.7813,21.2188 Q117.4688,20.8906 116.9063,20.7031 Q116.3438,20.5 115.7813,20.5 Q115.0781,20.5 114.4844,20.7813 Q113.9063,21.0625 113.4531,21.6875 Q113,22.3125 113,23.1719 L113,24.0938 Q113,25.125 113.8438,25.8125 Q114.6875,26.5 116.1875,26.5 Q117.0781,26.5 117.7031,26.2969 Q118.0625,26.1875 118.4688,25.8281 Q118.7344,25.625 118.875,25.5625 Q119.0156,25.5 119.1875,25.5 Q119.5156,25.5 119.75,25.7656 Q120,26.0156 120,26.375 Q120,26.7188 119.6563,27.125 Q119.1563,27.7188 118.3594,28.0469 Q117.3125,28.5 116.0313,28.5 Q114.5313,28.5 113.3281,27.9063 Q112.3594,27.4375 111.6719,26.4219 Q111,25.4063 111,24.2031 L111,23.1094 Q111,21.8594 111.5938,20.7656 Q112.2031,19.6719 113.25,19.0938 Q114.3125,18.5 115.5,18.5 Q116.2188,18.5 116.8438,18.75 Q117.4688,19 118,19.5 Z " fill="#000000"/><text fill="#000000" font-family="sans-serif" font-size="12" lengthAdjust="spacing" textLength="42" x="130" y="27.9102">Product</text><line style="stroke:#A80036;stroke-width:1.5;" x1="102" x2="174" y1="39" y2="39"/><line style="stroke:#A80036;stroke-width:1.5;" x1="102" x2="174" y1="47" y2="47"/><!--MD5=[dbb8b4f13c7b21394f9d757e58732f45]
class Service--><rect codeLine="4" fill="#FEFECE" filter="url(#f1f53plrcyxstg)" height="48" id="Service" style="stroke:#A80036;stroke-width:1.5;" width="72" x="298" y="7"/><ellipse cx="313" cy="23" fill="#ADD1B2" rx="11" ry="11" style="stroke:#A80036;stroke-width:1.0;"/><path d="M315,19.5 Q315.2031,19 315.4375,18.75 Q315.6719,18.5 315.9375,18.5 Q316.4063,18.5 316.7031,18.7813 Q317,19.0625 317,19.7188 L317,21.2813 Q317,21.9375 316.7188,22.2188 Q316.4375,22.5 316,22.5 Q315.6094,22.5 315.3594,22.3281 Q315.1094,22.1563 315,21.7031 Q314.9531,21.3906 314.7813,21.2188 Q314.4688,20.8906 313.9063,20.7031 Q313.3438,20.5 312.7813,20.5 Q312.0781,20.5 311.4844,20.7813 Q310.9063,21.0625 310.4531,21.6875 Q310,22.3125 310,23.1719 L310,24.0938 Q310,25.125 310.8438,25.8125 Q311.6875,26.5 313.1875,26.5 Q314.0781,26.5 314.7031,26.2969 Q315.0625,26.1875 315.4688,25.8281 Q315.7344,25.625 315.875,25.5625 Q316.0156,25.5 316.1875,25.5 Q316.5156,25.5 316.75,25.7656 Q317,26.0156 317,26.375 Q317,26.7188 316.6563,27.125 Q316.1563,27.7188 315.3594,28.0469 Q314.3125,28.5 313.0313,28.5 Q311.5313,28.5 310.3281,27.9063 Q309.3594,27.4375 308.6719,26.4219 Q308,25.4063 308,24.2031 L308,23.1094 Q308,21.8594 308.5938,20.7656 Q309.2031,19.6719 310.25,19.0938 Q311.3125,18.5 312.5,18.5 Q313.2188,18.5 313.8438,18.75 Q314.4688,19 315,19.5 Z " fill="#000000"/><text fill="#000000" font-family="sans-serif" font-size="12" lengthAdjust="spacing" textLength="40" x="327" y="27.9102">Service</text><line style="stroke:#A80036;stroke-width:1.5;" x1="299" x2="369" y1="39" y2="39"/><line style="stroke:#A80036;stroke-width:1.5;" x1="299" x2="369" y1="47" y2="47"/><!--MD5=[dbfd7680984eb54d794e10dee7f3936a]
class Instance--><rect codeLine="6" fill="#FEFECE" filter="url(#f1f53plrcyxstg)" height="48" id="Instance" style="stroke:#A80036;stroke-width:1.5;" width="79" x="294.5" y="129"/><ellipse cx="309.5" cy="145" fill="#ADD1B2" rx="11" ry="11" style="stroke:#A80036;stroke-width:1.0;"/><path d="M311.5,141.5 Q311.7031,141 311.9375,140.75 Q312.1719,140.5 312.4375,140.5 Q312.9063,140.5 313.2031,140.7813 Q313.5,141.0625 313.5,141.7188 L313.5,143.2813 Q313.5,143.9375 313.2188,144.2188 Q312.9375,144.5 312.5,144.5 Q312.1094,144.5 311.8594,144.3281 Q311.6094,144.1563 311.5,143.7031 Q311.4531,143.3906 311.2813,143.2188 Q310.9688,142.8906 310.4063,142.7031 Q309.8438,142.5 309.2813,142.5 Q308.5781,142.5 307.9844,142.7813 Q307.4063,143.0625 306.9531,143.6875 Q306.5,144.3125 306.5,145.1719 L306.5,146.0938 Q306.5,147.125 307.3438,147.8125 Q308.1875,148.5 309.6875,148.5 Q310.5781,148.5 311.2031,148.2969 Q311.5625,148.1875 311.9688,147.8281 Q312.2344,147.625 312.375,147.5625 Q312.5156,147.5 312.6875,147.5 Q313.0156,147.5 313.25,147.7656 Q313.5,148.0156 313.5,148.375 Q313.5,148.7188 313.1563,149.125 Q312.6563,149.7188 311.8594,150.0469 Q310.8125,150.5 309.5313,150.5 Q308.0313,150.5 306.8281,149.9063 Q305.8594,149.4375 305.1719,148.4219 Q304.5,147.4063 304.5,146.2031 L304.5,145.1094 Q304.5,143.8594 305.0938,142.7656 Q305.7031,141.6719 306.75,141.0938 Q307.8125,140.5 309,140.5 Q309.7188,140.5 310.3438,140.75 Q310.9688,141 311.5,141.5 Z " fill="#000000"/><text fill="#000000" font-family="sans-serif" font-size="12" lengthAdjust="spacing" textLength="47" x="323.5" y="149.9102">Instance</text><line style="stroke:#A80036;stroke-width:1.5;" x1="295.5" x2="372.5" y1="161" y2="161"/><line style="stroke:#A80036;stroke-width:1.5;" x1="295.5" x2="372.5" y1="169" y2="169"/><!--MD5=[5b1d549712648da210eaf378391d698f]
class CostItem--><rect codeLine="9" fill="#FEFECE" filter="url(#f1f53plrcyxstg)" height="117.1797" id="CostItem" style="stroke:#A80036;stroke-width:1.5;" width="147" x="279.5" y="251"/><ellipse cx="323.75" cy="267" fill="#A9DCDF" rx="11" ry="11" style="stroke:#A80036;stroke-width:1.0;"/><path d="M325.5,268.5 L322.2031,268.5 L321.7656,269.5 L321.7656,269.5 L322.2344,269.5 L322.75,270.125 L322.75,270.5 L322.75,270.875 L322.2344,271.5 L321.7656,271.5 L319.875,271.5 L319.2656,271.5 L318.75,270.875 L318.75,270.5 L318.75,270.125 L319.2656,269.5 L319.875,269.5 L322.1875,263.5 L321.3125,263.5 L320.2656,263.5 L319.75,262.875 L319.75,262.5 L319.75,262.125 L320.2656,261.5 L321.3125,261.5 L324.9844,261.5 L327.6719,269.5 L328.2344,269.5 L328.2344,269.5 L328.75,270.125 L328.75,270.5 L328.75,270.875 L328.2344,271.5 L327.6719,271.5 L325.7813,271.5 L325.2656,271.5 L324.75,270.875 L324.75,270.5 L324.75,270.125 L325.2656,269.5 L325.7813,269.5 L325.7813,269.5 L325.5,268.5 Z M324.9531,266.5 L323.75,262.9219 L322.7188,266.5 L324.9531,266.5 Z " fill="#000000"/><text fill="#000000" font-family="sans-serif" font-size="12" font-style="italic" lengthAdjust="spacing" textLength="50" x="344.25" y="271.9102">CostItem</text><line style="stroke:#A80036;stroke-width:1.5;" x1="280.5" x2="425.5" y1="283" y2="283"/><text fill="#000000" font-family="sans-serif" font-size="11" lengthAdjust="spacing" textLength="135" x="285.5" y="298.4189">Cost: amortized, on-demand</text><text fill="#000000" font-family="sans-serif" font-size="11" lengthAdjust="spacing" textLength="54" x="285.5" y="312.2549">Component</text><text fill="#000000" font-family="sans-serif" font-size="11" lengthAdjust="spacing" textLength="59" x="285.5" y="326.0908">Environment</text><text fill="#000000" font-family="sans-serif" font-size="11" lengthAdjust="spacing" textLength="38" x="285.5" y="339.9268">Partition</text><text fill="#000000" font-family="sans-serif" font-size="11" lengthAdjust="spacing" textLength="24" x="285.5" y="353.7627">Tags</text><line style="stroke:#A80036;stroke-width:1.5;" x1="280.5" x2="425.5" y1="360.1797" y2="360.1797"/><!--MD5=[0b5f4006b35f658d2e4824834f7bc644]
class CloudProviderCostItem--><rect codeLine="48" fill="#FEFECE" filter="url(#f1f53plrcyxstg)" height="61.8359" id="CloudProviderCostItem" style="stroke:#A80036;stroke-width:1.5;" width="189" x="276.5" y="462.5"/><ellipse cx="304.55" cy="478.5" fill="#ADD1B2" rx="11" ry="11" style="stroke:#A80036;stroke-width:1.0;"/><path d="M306.55,475 Q306.7531,474.5 306.9875,474.25 Q307.2219,474 307.4875,474 Q307.9563,474 308.2531,474.2813 Q308.55,474.5625 308.55,475.2188 L308.55,476.7813 Q308.55,477.4375 308.2688,477.7188 Q307.9875,478 307.55,478 Q307.1594,478 306.9094,477.8281 Q306.6594,477.6563 306.55,477.2031 Q306.5031,476.8906 306.3313,476.7188 Q306.0188,476.3906 305.4563,476.2031 Q304.8938,476 304.3313,476 Q303.6281,476 303.0344,476.2813 Q302.4563,476.5625 302.0031,477.1875 Q301.55,477.8125 301.55,478.6719 L301.55,479.5938 Q301.55,480.625 302.3938,481.3125 Q303.2375,482 304.7375,482 Q305.6281,482 306.2531,481.7969 Q306.6125,481.6875 307.0188,481.3281 Q307.2844,481.125 307.425,481.0625 Q307.5656,481 307.7375,481 Q308.0656,481 308.3,481.2656 Q308.55,481.5156 308.55,481.875 Q308.55,482.2188 308.2063,482.625 Q307.7063,483.2188 306.9094,483.5469 Q305.8625,484 304.5813,484 Q303.0813,484 301.8781,483.4063 Q300.9094,482.9375 300.2219,481.9219 Q299.55,480.9063 299.55,479.7031 L299.55,478.6094 Q299.55,477.3594 300.1438,476.2656 Q300.7531,475.1719 301.8,474.5938 Q302.8625,474 304.05,474 Q304.7688,474 305.3938,474.25 Q306.0188,474.5 306.55,475 Z " fill="#000000"/><text fill="#000000" font-family="sans-serif" font-size="12" lengthAdjust="spacing" textLength="128" x="321.45" y="483.4102">CloudProviderCostItem</text><line style="stroke:#A80036;stroke-width:1.5;" x1="277.5" x2="464.5" y1="494.5" y2="494.5"/><text fill="#000000" font-family="sans-serif" font-size="11" lengthAdjust="spacing" textLength="177" x="282.5" y="509.9189">Cost line: ResourceId, BillingMeter, ...</text><line style="stroke:#A80036;stroke-width:1.5;" x1="277.5" x2="464.5" y1="516.3359" y2="516.3359"/><!--MD5=[da6bf26049017d36b72aba462b5bdd3d]
reverse link Service to Instance--><path codeLine="7" d="M334,68.3 C334,88.01 334,111.77 334,128.93 " fill="none" id="Service-backto-Instance" style="stroke:#A80036;stroke-width:1.0;"/><polygon fill="#A80036" points="334,55.14,330,61.14,334,67.14,338,61.14,334,55.14" style="stroke:#A80036;stroke-width:1.0;"/><text fill="#000000" font-family="sans-serif" font-size="13" lengthAdjust="spacing" textLength="7" x="326.1469" y="76.5121">1</text><text fill="#000000" font-family="sans-serif" font-size="13" lengthAdjust="spacing" textLength="7" x="326.1031" y="118.2522">n</text><!--MD5=[56b5b3c6f23d68d9aaf3cfe6cf8a2ec5]
reverse link Instance to CostItem--><path codeLine="16" d="M338.46,190.28 C340.68,208.3 343.41,230.51 345.9,250.8 " fill="none" id="Instance-backto-CostItem" style="stroke:#A80036;stroke-width:1.0;"/><polygon fill="#A80036" points="336.84,177.13,333.6019,183.5732,338.3041,189.0404,341.5421,182.5972,336.84,177.13" style="stroke:#A80036;stroke-width:1.0;"/><text fill="#000000" font-family="sans-serif" font-size="13" lengthAdjust="spacing" textLength="7" x="329.6791" y="198.4997">1</text><text fill="#000000" font-family="sans-serif" font-size="13" lengthAdjust="spacing" textLength="7" x="337.6081" y="240.1765">n</text><!--MD5=[4f939b22b2f5c1df8de964ff0b4e1358]
link Instance to CostAllocationItem--><path codeLine="40" d="M304.66,177.13 C276.64,199.21 233.58,233.16 198.25,261.01 " fill="none" id="Instance-to-CostAllocationItem" style="stroke:#A80036;stroke-width:1.0;"/><polygon fill="#A80036" points="193.98,264.37,203.5285,261.9564,197.9121,261.2815,198.587,255.6651,193.98,264.37" style="stroke:#A80036;stroke-width:1.0;"/><text fill="#000000" font-family="sans-serif" font-size="13" lengthAdjust="spacing" textLength="7" x="289.6553" y="198.4997">1</text><text fill="#000000" font-family="sans-serif" font-size="13" lengthAdjust="spacing" textLength="7" x="195.016" y="253.7942">n</text><!--MD5=[514c0ba441db9c585dc31c406542939e]
reverse link CostItem to ConsumerCostItem--><path codeLine="42" d="M275.03,381.81 C258.37,397.04 240.87,413.05 224.51,428.01 " fill="none" id="CostItem-backto-ConsumerCostItem" style="stroke:#A80036;stroke-width:1.0;"/><polygon fill="none" points="270.55,376.42,290.04,368.09,280,386.75,270.55,376.42" style="stroke:#A80036;stroke-width:1.0;"/><!--MD5=[657772d4a1a9ce39fceb1df646e94563]
link CostAllocationItem to ConsumerCostItem--><path codeLine="43" d="M141.87,354.56 C143.67,375 145.85,399.79 147.86,422.69 " fill="none" id="CostAllocationItem-to-ConsumerCostItem" style="stroke:#A80036;stroke-width:1.0;"/><polygon fill="#A80036" points="148.32,427.85,151.5322,418.5397,147.8906,422.8685,143.5618,419.2268,148.32,427.85" style="stroke:#A80036;stroke-width:1.0;"/><text fill="#000000" font-family="sans-serif" font-size="13" lengthAdjust="spacing" textLength="18" x="123.1486" y="375.576">0,1</text><text fill="#000000" font-family="sans-serif" font-size="13" lengthAdjust="spacing" textLength="7" x="140.3159" y="417.308">1</text><!--MD5=[cc43d5841b770414925ccbb14d3ad7f5]
reverse link ProductCostItem to CostAllocationItem--><path codeLine="45" d="M138,196.01 C138,217.2 138,242.9 138,264.38 " fill="none" id="ProductCostItem-backto-CostAllocationItem" style="stroke:#A80036;stroke-width:1.0;"/><polygon fill="#A80036" points="138,191.01,134,200.01,138,196.01,142,200.01,138,191.01" style="stroke:#A80036;stroke-width:1.0;"/><text fill="#000000" font-family="sans-serif" font-size="13" lengthAdjust="spacing" textLength="7" x="130.4203" y="212.1818">1</text><text fill="#000000" font-family="sans-serif" font-size="13" lengthAdjust="spacing" textLength="18" x="118.6219" y="253.8057">0,1</text><!--MD5=[cc7a36649d007656ac86f6894d34b66d]
reverse link Product to ProductCostItem--><path codeLine="46" d="M138,68.39 C138,83.07 138,100 138,114.77 " fill="none" id="Product-backto-ProductCostItem" style="stroke:#A80036;stroke-width:1.0;"/><polygon fill="#A80036" points="138,55.14,134,61.14,138,67.14,142,61.14,138,55.14" style="stroke:#A80036;stroke-width:1.0;"/><text fill="#000000" font-family="sans-serif" font-size="13" lengthAdjust="spacing" textLength="7" x="130.1469" y="76.5121">1</text><text fill="#000000" font-family="sans-serif" font-size="13" lengthAdjust="spacing" textLength="7" x="130.3766" y="104.0909">n</text><!--MD5=[ac046e7aeb82b06ec760946dfdbe66da]
reverse link CostItem to CloudProviderCostItem--><path codeLine="51" d="M360.68,388.18 C363.28,414.44 366.03,442.22 368.03,462.5 " fill="none" id="CostItem-backto-CloudProviderCostItem" style="stroke:#A80036;stroke-width:1.0;"/><polygon fill="none" points="353.7,388.68,358.7,368.09,367.63,387.3,353.7,388.68" style="stroke:#A80036;stroke-width:1.0;"/><!--MD5=[9fff5314bea898fcb37405bf4ce66dff]
@startuml

class Product

class Service

class Instance
Instance "n" -up-* "1" Service

abstract CostItem {
Cost: amortized, on-demand
Component
Environment
Partition
Tags
}
Instance "1" *- - "n" CostItem

package "Service Cost Allocation Data" as CostAllocationCSV {

class CostAllocationItem {
ProviderTagSelector
ProviderMeter[Name/Unit/Value][1/2/3/4/5]
ProviderCostAllocationKey
}

class ProductCostItem {
Product
ProductMeter[Name/Unit/Value]
}

class ConsumerCostItem {
ConsumerService
ConsumerInstance
ConsumerComponent
ConsumerEnvironment
ConsumerPartition
ConsumerTags
}
}
Instance "1"- -> "n" CostAllocationItem

ConsumerCostItem =up=|> CostItem
CostAllocationItem "0,1" - -> "1" ConsumerCostItem

ProductCostItem "1" <-down- "0,1" CostAllocationItem
ProductCostItem "n"-up-* "1" Product

class CloudProviderCostItem {
Cost line: ResourceId, BillingMeter, ...
}
CloudProviderCostItem =up=|> CostItem

@enduml

PlantUML version 1.2022.1(Tue Feb 01 19:19:58 CET 2022)
(GPL source distribution)
Java Runtime: OpenJDK Runtime Environment
JVM: OpenJDK 64-Bit Server VM
Default Encoding: Cp1252
Language: en
Country: IE
--></g></svg>