<?xml version="1.0" encoding="UTF-8" standalone="no"?><svg xmlns="http://www.w3.org/2000/svg" xmlns:xlink="http://www.w3.org/1999/xlink" contentScriptType="application/ecmascript" contentStyleType="text/css" height="554px" preserveAspectRatio="none" style="width:547px;height:554px;background:#FFFFFF;" version="1.1" viewBox="0 0 547 554" width="547px" zoomAndPan="magnify"><defs><filter height="300%" id="f1j2x7npuapg6y" width="300%" x="-1" y="-1"><feGaussianBlur result="blurOut" stdDeviation="2.0"/><feColorMatrix in="blurOut" result="blurOut2" type="matrix" values="0 0 0 0 0 0 0 0 0 0 0 0 0 0 0 0 0 0 .4 0"/><feOffset dx="4.0" dy="4.0" in="blurOut2" result="blurOut3"/><feBlend in="SourceGraphic" in2="blurOut3" mode="normal"/></filter></defs><g><!--MD5=[b612e5d23d7d3446c756baf21c953ec1]
cluster CostAllocationCSV--><polygon fill="#FFFFFF" filter="url(#f1j2x7npuapg6y)" points="16,79,220,79,227,102.6094,332,102.6094,332,547,16,547,16,79" style="stroke:#000000;stroke-width:1.5;"/><line style="stroke:#000000;stroke-width:1.5;" x1="16" x2="227" y1="102.6094" y2="102.6094"/><text fill="#000000" font-family="sans-serif" font-size="14" font-weight="bold" lengthAdjust="spacing" textLength="198" x="20" y="95.5332">Service Cost Allocation Data</text><!--MD5=[8185f9e7a8208cff32031f28f70075f5]
class CostAllocationItem--><rect codeLine="20" fill="#FEFECE" filter="url(#f1j2x7npuapg6y)" height="117.1797" id="CostAllocationItem" style="stroke:#A80036;stroke-width:1.5;" width="283" x="32.5" y="251"/><ellipse cx="118.25" cy="267" fill="#ADD1B2" rx="11" ry="11" style="stroke:#A80036;stroke-width:1.0;"/><path d="M120.25,263.5 Q120.4531,263 120.6875,262.75 Q120.9219,262.5 121.1875,262.5 Q121.6563,262.5 121.9531,262.7813 Q122.25,263.0625 122.25,263.7188 L122.25,265.2813 Q122.25,265.9375 121.9688,266.2188 Q121.6875,266.5 121.25,266.5 Q120.8594,266.5 120.6094,266.3281 Q120.3594,266.1563 120.25,265.7031 Q120.2031,265.3906 120.0313,265.2188 Q119.7188,264.8906 119.1563,264.7031 Q118.5938,264.5 118.0313,264.5 Q117.3281,264.5 116.7344,264.7813 Q116.1563,265.0625 115.7031,265.6875 Q115.25,266.3125 115.25,267.1719 L115.25,268.0938 Q115.25,269.125 116.0938,269.8125 Q116.9375,270.5 118.4375,270.5 Q119.3281,270.5 119.9531,270.2969 Q120.3125,270.1875 120.7188,269.8281 Q120.9844,269.625 121.125,269.5625 Q121.2656,269.5 121.4375,269.5 Q121.7656,269.5 122,269.7656 Q122.25,270.0156 122.25,270.375 Q122.25,270.7188 121.9063,271.125 Q121.4063,271.7188 120.6094,272.0469 Q119.5625,272.5 118.2813,272.5 Q116.7813,272.5 115.5781,271.9063 Q114.6094,271.4375 113.9219,270.4219 Q113.25,269.4063 113.25,268.2031 L113.25,267.1094 Q113.25,265.8594 113.8438,264.7656 Q114.4531,263.6719 115.5,263.0938 Q116.5625,262.5 117.75,262.5 Q118.4688,262.5 119.0938,262.75 Q119.7188,263 120.25,263.5 Z " fill="#000000"/><text fill="#000000" font-family="sans-serif" font-size="12" lengthAdjust="spacing" textLength="103" x="138.75" y="271.9102">CostAllocationItem</text><line style="stroke:#A80036;stroke-width:1.5;" x1="33.5" x2="314.5" y1="283" y2="283"/><text fill="#000000" font-family="sans-serif" font-size="11" lengthAdjust="spacing" textLength="170" x="38.5" y="298.4189">ProviderMeter[Names/Units/Values]</text><text fill="#000000" font-family="sans-serif" font-size="11" lengthAdjust="spacing" textLength="98" x="38.5" y="312.2549">ProviderTagSelector</text><text fill="#000000" font-family="sans-serif" font-size="11" lengthAdjust="spacing" textLength="271" x="38.5" y="326.0908">ProviderCostAllocationType: Key/CloudTagSelector/Cost</text><text fill="#000000" font-family="sans-serif" font-size="11" lengthAdjust="spacing" textLength="128" x="38.5" y="339.9268">ProviderCostAllocationKey</text><text fill="#000000" font-family="sans-serif" font-size="11" lengthAdjust="spacing" textLength="194" x="38.5" y="353.7627">ProviderCostAllocationCloudTagSelector</text><line style="stroke:#A80036;stroke-width:1.5;" x1="33.5" x2="314.5" y1="360.1797" y2="360.1797"/><!--MD5=[d4a63327ff2550724f02498610121399]
class ProductCostItem--><rect codeLine="28" fill="#FEFECE" filter="url(#f1j2x7npuapg6y)" height="75.6719" id="ProductCostItem" style="stroke:#A80036;stroke-width:1.5;" width="183" x="82.5" y="115"/><ellipse cx="124.05" cy="131" fill="#ADD1B2" rx="11" ry="11" style="stroke:#A80036;stroke-width:1.0;"/><path d="M126.05,127.5 Q126.2531,127 126.4875,126.75 Q126.7219,126.5 126.9875,126.5 Q127.4563,126.5 127.7531,126.7813 Q128.05,127.0625 128.05,127.7188 L128.05,129.2813 Q128.05,129.9375 127.7688,130.2188 Q127.4875,130.5 127.05,130.5 Q126.6594,130.5 126.4094,130.3281 Q126.1594,130.1563 126.05,129.7031 Q126.0031,129.3906 125.8313,129.2188 Q125.5188,128.8906 124.9563,128.7031 Q124.3938,128.5 123.8313,128.5 Q123.1281,128.5 122.5344,128.7813 Q121.9563,129.0625 121.5031,129.6875 Q121.05,130.3125 121.05,131.1719 L121.05,132.0938 Q121.05,133.125 121.8938,133.8125 Q122.7375,134.5 124.2375,134.5 Q125.1281,134.5 125.7531,134.2969 Q126.1125,134.1875 126.5188,133.8281 Q126.7844,133.625 126.925,133.5625 Q127.0656,133.5 127.2375,133.5 Q127.5656,133.5 127.8,133.7656 Q128.05,134.0156 128.05,134.375 Q128.05,134.7188 127.7063,135.125 Q127.2063,135.7188 126.4094,136.0469 Q125.3625,136.5 124.0813,136.5 Q122.5813,136.5 121.3781,135.9063 Q120.4094,135.4375 119.7219,134.4219 Q119.05,133.4063 119.05,132.2031 L119.05,131.1094 Q119.05,129.8594 119.6438,128.7656 Q120.2531,127.6719 121.3,127.0938 Q122.3625,126.5 123.55,126.5 Q124.2688,126.5 124.8938,126.75 Q125.5188,127 126.05,127.5 Z " fill="#000000"/><text fill="#000000" font-family="sans-serif" font-size="12" lengthAdjust="spacing" textLength="92" x="143.95" y="135.9102">ProductCostItem</text><line style="stroke:#A80036;stroke-width:1.5;" x1="83.5" x2="264.5" y1="147" y2="147"/><text fill="#000000" font-family="sans-serif" font-size="11" lengthAdjust="spacing" textLength="171" x="88.5" y="162.4189">ProductDimension[Names/Elements]</text><text fill="#000000" font-family="sans-serif" font-size="11" lengthAdjust="spacing" textLength="167" x="88.5" y="176.2549">ProductMeter[Names/Units/Values]</text><line style="stroke:#A80036;stroke-width:1.5;" x1="83.5" x2="264.5" y1="182.6719" y2="182.6719"/><!--MD5=[b35fb6a18a7e3916e657c07801ef3516]
class ConsumerCostItem--><rect codeLine="33" fill="#FEFECE" filter="url(#f1j2x7npuapg6y)" height="103.3438" id="ConsumerCostItem" style="stroke:#A80036;stroke-width:1.5;" width="141" x="137.5" y="428"/><ellipse cx="152.5" cy="444" fill="#ADD1B2" rx="11" ry="11" style="stroke:#A80036;stroke-width:1.0;"/><path d="M154.5,440.5 Q154.7031,440 154.9375,439.75 Q155.1719,439.5 155.4375,439.5 Q155.9063,439.5 156.2031,439.7813 Q156.5,440.0625 156.5,440.7188 L156.5,442.2813 Q156.5,442.9375 156.2188,443.2188 Q155.9375,443.5 155.5,443.5 Q155.1094,443.5 154.8594,443.3281 Q154.6094,443.1563 154.5,442.7031 Q154.4531,442.3906 154.2813,442.2188 Q153.9688,441.8906 153.4063,441.7031 Q152.8438,441.5 152.2813,441.5 Q151.5781,441.5 150.9844,441.7813 Q150.4063,442.0625 149.9531,442.6875 Q149.5,443.3125 149.5,444.1719 L149.5,445.0938 Q149.5,446.125 150.3438,446.8125 Q151.1875,447.5 152.6875,447.5 Q153.5781,447.5 154.2031,447.2969 Q154.5625,447.1875 154.9688,446.8281 Q155.2344,446.625 155.375,446.5625 Q155.5156,446.5 155.6875,446.5 Q156.0156,446.5 156.25,446.7656 Q156.5,447.0156 156.5,447.375 Q156.5,447.7188 156.1563,448.125 Q155.6563,448.7188 154.8594,449.0469 Q153.8125,449.5 152.5313,449.5 Q151.0313,449.5 149.8281,448.9063 Q148.8594,448.4375 148.1719,447.4219 Q147.5,446.4063 147.5,445.2031 L147.5,444.1094 Q147.5,442.8594 148.0938,441.7656 Q148.7031,440.6719 149.75,440.0938 Q150.8125,439.5 152,439.5 Q152.7188,439.5 153.3438,439.75 Q153.9688,440 154.5,440.5 Z " fill="#000000"/><text fill="#000000" font-family="sans-serif" font-size="12" lengthAdjust="spacing" textLength="109" x="166.5" y="448.9102">ConsumerCostItem</text><line style="stroke:#A80036;stroke-width:1.5;" x1="138.5" x2="277.5" y1="460" y2="460"/><text fill="#000000" font-family="sans-serif" font-size="11" lengthAdjust="spacing" textLength="86" x="143.5" y="475.4189">ConsumerService</text><text fill="#000000" font-family="sans-serif" font-size="11" lengthAdjust="spacing" textLength="90" x="143.5" y="489.2549">ConsumerInstance</text><text fill="#000000" font-family="sans-serif" font-size="11" lengthAdjust="spacing" textLength="104" x="143.5" y="503.0908">ConsumerDimensions</text><text fill="#000000" font-family="sans-serif" font-size="11" lengthAdjust="spacing" textLength="73" x="143.5" y="516.9268">ConsumerTags</text><line style="stroke:#A80036;stroke-width:1.5;" x1="138.5" x2="277.5" y1="523.3438" y2="523.3438"/><!--MD5=[72136138052d025cffdce3c22fbd185f]
class Product--><rect codeLine="2" fill="#FEFECE" filter="url(#f1j2x7npuapg6y)" height="48" id="Product" style="stroke:#A80036;stroke-width:1.5;" width="74" x="137" y="7"/><ellipse cx="152" cy="23" fill="#ADD1B2" rx="11" ry="11" style="stroke:#A80036;stroke-width:1.0;"/><path d="M154,19.5 Q154.2031,19 154.4375,18.75 Q154.6719,18.5 154.9375,18.5 Q155.4063,18.5 155.7031,18.7813 Q156,19.0625 156,19.7188 L156,21.2813 Q156,21.9375 155.7188,22.2188 Q155.4375,22.5 155,22.5 Q154.6094,22.5 154.3594,22.3281 Q154.1094,22.1563 154,21.7031 Q153.9531,21.3906 153.7813,21.2188 Q153.4688,20.8906 152.9063,20.7031 Q152.3438,20.5 151.7813,20.5 Q151.0781,20.5 150.4844,20.7813 Q149.9063,21.0625 149.4531,21.6875 Q149,22.3125 149,23.1719 L149,24.0938 Q149,25.125 149.8438,25.8125 Q150.6875,26.5 152.1875,26.5 Q153.0781,26.5 153.7031,26.2969 Q154.0625,26.1875 154.4688,25.8281 Q154.7344,25.625 154.875,25.5625 Q155.0156,25.5 155.1875,25.5 Q155.5156,25.5 155.75,25.7656 Q156,26.0156 156,26.375 Q156,26.7188 155.6563,27.125 Q155.1563,27.7188 154.3594,28.0469 Q153.3125,28.5 152.0313,28.5 Q150.5313,28.5 149.3281,27.9063 Q148.3594,27.4375 147.6719,26.4219 Q147,25.4063 147,24.2031 L147,23.1094 Q147,21.8594 147.5938,20.7656 Q148.2031,19.6719 149.25,19.0938 Q150.3125,18.5 151.5,18.5 Q152.2188,18.5 152.8438,18.75 Q153.4688,19 154,19.5 Z " fill="#000000"/><text fill="#000000" font-family="sans-serif" font-size="12" lengthAdjust="spacing" textLength="42" x="166" y="27.9102">Product</text><line style="stroke:#A80036;stroke-width:1.5;" x1="138" x2="210" y1="39" y2="39"/><line style="stroke:#A80036;stroke-width:1.5;" x1="138" x2="210" y1="47" y2="47"/><!--MD5=[dbb8b4f13c7b21394f9d757e58732f45]
class Service--><rect codeLine="4" fill="#FEFECE" filter="url(#f1j2x7npuapg6y)" height="48" id="Service" style="stroke:#A80036;stroke-width:1.5;" width="72" x="369" y="7"/><ellipse cx="384" cy="23" fill="#ADD1B2" rx="11" ry="11" style="stroke:#A80036;stroke-width:1.0;"/><path d="M386,19.5 Q386.2031,19 386.4375,18.75 Q386.6719,18.5 386.9375,18.5 Q387.4063,18.5 387.7031,18.7813 Q388,19.0625 388,19.7188 L388,21.2813 Q388,21.9375 387.7188,22.2188 Q387.4375,22.5 387,22.5 Q386.6094,22.5 386.3594,22.3281 Q386.1094,22.1563 386,21.7031 Q385.9531,21.3906 385.7813,21.2188 Q385.4688,20.8906 384.9063,20.7031 Q384.3438,20.5 383.7813,20.5 Q383.0781,20.5 382.4844,20.7813 Q381.9063,21.0625 381.4531,21.6875 Q381,22.3125 381,23.1719 L381,24.0938 Q381,25.125 381.8438,25.8125 Q382.6875,26.5 384.1875,26.5 Q385.0781,26.5 385.7031,26.2969 Q386.0625,26.1875 386.4688,25.8281 Q386.7344,25.625 386.875,25.5625 Q387.0156,25.5 387.1875,25.5 Q387.5156,25.5 387.75,25.7656 Q388,26.0156 388,26.375 Q388,26.7188 387.6563,27.125 Q387.1563,27.7188 386.3594,28.0469 Q385.3125,28.5 384.0313,28.5 Q382.5313,28.5 381.3281,27.9063 Q380.3594,27.4375 379.6719,26.4219 Q379,25.4063 379,24.2031 L379,23.1094 Q379,21.8594 379.5938,20.7656 Q380.2031,19.6719 381.25,19.0938 Q382.3125,18.5 383.5,18.5 Q384.2188,18.5 384.8438,18.75 Q385.4688,19 386,19.5 Z " fill="#000000"/><text fill="#000000" font-family="sans-serif" font-size="12" lengthAdjust="spacing" textLength="40" x="398" y="27.9102">Service</text><line style="stroke:#A80036;stroke-width:1.5;" x1="370" x2="440" y1="39" y2="39"/><line style="stroke:#A80036;stroke-width:1.5;" x1="370" x2="440" y1="47" y2="47"/><!--MD5=[dbfd7680984eb54d794e10dee7f3936a]
class Instance--><rect codeLine="6" fill="#FEFECE" filter="url(#f1j2x7npuapg6y)" height="48" id="Instance" style="stroke:#A80036;stroke-width:1.5;" width="79" x="365.5" y="129"/><ellipse cx="380.5" cy="145" fill="#ADD1B2" rx="11" ry="11" style="stroke:#A80036;stroke-width:1.0;"/><path d="M382.5,141.5 Q382.7031,141 382.9375,140.75 Q383.1719,140.5 383.4375,140.5 Q383.9063,140.5 384.2031,140.7813 Q384.5,141.0625 384.5,141.7188 L384.5,143.2813 Q384.5,143.9375 384.2188,144.2188 Q383.9375,144.5 383.5,144.5 Q383.1094,144.5 382.8594,144.3281 Q382.6094,144.1563 382.5,143.7031 Q382.4531,143.3906 382.2813,143.2188 Q381.9688,142.8906 381.4063,142.7031 Q380.8438,142.5 380.2813,142.5 Q379.5781,142.5 378.9844,142.7813 Q378.4063,143.0625 377.9531,143.6875 Q377.5,144.3125 377.5,145.1719 L377.5,146.0938 Q377.5,147.125 378.3438,147.8125 Q379.1875,148.5 380.6875,148.5 Q381.5781,148.5 382.2031,148.2969 Q382.5625,148.1875 382.9688,147.8281 Q383.2344,147.625 383.375,147.5625 Q383.5156,147.5 383.6875,147.5 Q384.0156,147.5 384.25,147.7656 Q384.5,148.0156 384.5,148.375 Q384.5,148.7188 384.1563,149.125 Q383.6563,149.7188 382.8594,150.0469 Q381.8125,150.5 380.5313,150.5 Q379.0313,150.5 377.8281,149.9063 Q376.8594,149.4375 376.1719,148.4219 Q375.5,147.4063 375.5,146.2031 L375.5,145.1094 Q375.5,143.8594 376.0938,142.7656 Q376.7031,141.6719 377.75,141.0938 Q378.8125,140.5 380,140.5 Q380.7188,140.5 381.3438,140.75 Q381.9688,141 382.5,141.5 Z " fill="#000000"/><text fill="#000000" font-family="sans-serif" font-size="12" lengthAdjust="spacing" textLength="47" x="394.5" y="149.9102">Instance</text><line style="stroke:#A80036;stroke-width:1.5;" x1="366.5" x2="443.5" y1="161" y2="161"/><line style="stroke:#A80036;stroke-width:1.5;" x1="366.5" x2="443.5" y1="169" y2="169"/><!--MD5=[5b1d549712648da210eaf378391d698f]
class CostItem--><rect codeLine="9" fill="#FEFECE" filter="url(#f1j2x7npuapg6y)" height="117.1797" id="CostItem" style="stroke:#A80036;stroke-width:1.5;" width="145" x="350.5" y="251"/><ellipse cx="393.85" cy="267" fill="#A9DCDF" rx="11" ry="11" style="stroke:#A80036;stroke-width:1.0;"/><path d="M395.6,268.5 L392.3031,268.5 L391.8656,269.5 L391.8656,269.5 L392.3344,269.5 L392.85,270.125 L392.85,270.5 L392.85,270.875 L392.3344,271.5 L391.8656,271.5 L389.975,271.5 L389.3656,271.5 L388.85,270.875 L388.85,270.5 L388.85,270.125 L389.3656,269.5 L389.975,269.5 L392.2875,263.5 L391.4125,263.5 L390.3656,263.5 L389.85,262.875 L389.85,262.5 L389.85,262.125 L390.3656,261.5 L391.4125,261.5 L395.0844,261.5 L397.7719,269.5 L398.3344,269.5 L398.3344,269.5 L398.85,270.125 L398.85,270.5 L398.85,270.875 L398.3344,271.5 L397.7719,271.5 L395.8813,271.5 L395.3656,271.5 L394.85,270.875 L394.85,270.5 L394.85,270.125 L395.3656,269.5 L395.8813,269.5 L395.8813,269.5 L395.6,268.5 Z M395.0531,266.5 L393.85,262.9219 L392.8188,266.5 L395.0531,266.5 Z " fill="#000000"/><text fill="#000000" font-family="sans-serif" font-size="12" font-style="italic" lengthAdjust="spacing" textLength="50" x="414.15" y="271.9102">CostItem</text><line style="stroke:#A80036;stroke-width:1.5;" x1="351.5" x2="494.5" y1="283" y2="283"/><text fill="#000000" font-family="sans-serif" font-size="11" lengthAdjust="spacing" textLength="22" x="356.5" y="298.4189">Date</text><text fill="#000000" font-family="sans-serif" font-size="11" lengthAdjust="spacing" textLength="133" x="356.5" y="312.2549">[Amortized/OnDemand]Cost</text><text fill="#000000" font-family="sans-serif" font-size="11" lengthAdjust="spacing" textLength="45" x="356.5" y="326.0908">Currency</text><text fill="#000000" font-family="sans-serif" font-size="11" lengthAdjust="spacing" textLength="24" x="356.5" y="339.9268">Tags</text><text fill="#000000" font-family="sans-serif" font-size="11" lengthAdjust="spacing" textLength="55" x="356.5" y="353.7627">Dimensions</text><line style="stroke:#A80036;stroke-width:1.5;" x1="351.5" x2="494.5" y1="360.1797" y2="360.1797"/><!--MD5=[9dd47dee169cd07d10b1071186a45b1a]
class CloudCostItem--><rect codeLine="48" fill="#FEFECE" filter="url(#f1j2x7npuapg6y)" height="61.8359" id="CloudCostItem" style="stroke:#A80036;stroke-width:1.5;" width="185" x="348.5" y="448.5"/><ellipse cx="395.25" cy="464.5" fill="#ADD1B2" rx="11" ry="11" style="stroke:#A80036;stroke-width:1.0;"/><path d="M397.25,461 Q397.4531,460.5 397.6875,460.25 Q397.9219,460 398.1875,460 Q398.6563,460 398.9531,460.2813 Q399.25,460.5625 399.25,461.2188 L399.25,462.7813 Q399.25,463.4375 398.9688,463.7188 Q398.6875,464 398.25,464 Q397.8594,464 397.6094,463.8281 Q397.3594,463.6563 397.25,463.2031 Q397.2031,462.8906 397.0313,462.7188 Q396.7188,462.3906 396.1563,462.2031 Q395.5938,462 395.0313,462 Q394.3281,462 393.7344,462.2813 Q393.1563,462.5625 392.7031,463.1875 Q392.25,463.8125 392.25,464.6719 L392.25,465.5938 Q392.25,466.625 393.0938,467.3125 Q393.9375,468 395.4375,468 Q396.3281,468 396.9531,467.7969 Q397.3125,467.6875 397.7188,467.3281 Q397.9844,467.125 398.125,467.0625 Q398.2656,467 398.4375,467 Q398.7656,467 399,467.2656 Q399.25,467.5156 399.25,467.875 Q399.25,468.2188 398.9063,468.625 Q398.4063,469.2188 397.6094,469.5469 Q396.5625,470 395.2813,470 Q393.7813,470 392.5781,469.4063 Q391.6094,468.9375 390.9219,467.9219 Q390.25,466.9063 390.25,465.7031 L390.25,464.6094 Q390.25,463.3594 390.8438,462.2656 Q391.4531,461.1719 392.5,460.5938 Q393.5625,460 394.75,460 Q395.4688,460 396.0938,460.25 Q396.7188,460.5 397.25,461 Z " fill="#000000"/><text fill="#000000" font-family="sans-serif" font-size="12" lengthAdjust="spacing" textLength="83" x="415.75" y="469.4102">CloudCostItem</text><line style="stroke:#A80036;stroke-width:1.5;" x1="349.5" x2="532.5" y1="480.5" y2="480.5"/><line style="stroke:#A80036;stroke-width:1.5;" x1="349.5" x2="532.5" y1="488.5" y2="488.5"/><text fill="#000000" font-family="sans-serif" font-size="11" lengthAdjust="spacing" textLength="173" x="354.5" y="503.9189">Line (from cloud provider cost data)</text><!--MD5=[da6bf26049017d36b72aba462b5bdd3d]
reverse link Service to Instance--><path codeLine="7" d="M405,68.3 C405,88.01 405,111.77 405,128.93 " fill="none" id="Service-backto-Instance" style="stroke:#A80036;stroke-width:1.0;"/><polygon fill="#A80036" points="405,55.14,401,61.14,405,67.14,409,61.14,405,55.14" style="stroke:#A80036;stroke-width:1.0;"/><text fill="#000000" font-family="sans-serif" font-size="13" lengthAdjust="spacing" textLength="7" x="397.1469" y="76.5121">1</text><text fill="#000000" font-family="sans-serif" font-size="13" lengthAdjust="spacing" textLength="7" x="397.1031" y="118.2522">n</text><!--MD5=[56b5b3c6f23d68d9aaf3cfe6cf8a2ec5]
reverse link Instance to CostItem--><path codeLine="16" d="M409.23,190.28 C411.33,208.3 413.91,230.51 416.28,250.8 " fill="none" id="Instance-backto-CostItem" style="stroke:#A80036;stroke-width:1.0;"/><polygon fill="#A80036" points="407.69,177.13,404.409,183.5514,409.0745,189.0499,412.3555,182.6284,407.69,177.13" style="stroke:#A80036;stroke-width:1.0;"/><text fill="#000000" font-family="sans-serif" font-size="13" lengthAdjust="spacing" textLength="7" x="400.4926" y="198.4997">1</text><text fill="#000000" font-family="sans-serif" font-size="13" lengthAdjust="spacing" textLength="7" x="408.0344" y="240.1765">n</text><!--MD5=[4f939b22b2f5c1df8de964ff0b4e1358]
link Instance to CostAllocationItem--><path codeLine="40" d="M370.42,177.13 C342.48,195.82 301.85,222.99 264.78,247.78 " fill="none" id="Instance-to-CostAllocationItem" style="stroke:#A80036;stroke-width:1.0;"/><polygon fill="#A80036" points="260.28,250.8,269.9833,249.1128,264.4337,248.0166,265.5299,242.467,260.28,250.8" style="stroke:#A80036;stroke-width:1.0;"/><text fill="#000000" font-family="sans-serif" font-size="13" lengthAdjust="spacing" textLength="7" x="354.138" y="198.4997">1</text><text fill="#000000" font-family="sans-serif" font-size="13" lengthAdjust="spacing" textLength="7" x="263.3688" y="240.1765">n</text><!--MD5=[514c0ba441db9c585dc31c406542939e]
reverse link CostItem to ConsumerCostItem--><path codeLine="42" d="M334.32,379.8 C313.7,395.9 292.14,412.75 272.78,427.88 " fill="none" id="CostItem-backto-ConsumerCostItem" style="stroke:#A80036;stroke-width:1.0;"/><polygon fill="none" points="330.14,374.18,350.21,367.38,338.76,385.21,330.14,374.18" style="stroke:#A80036;stroke-width:1.0;"/><!--MD5=[8b8c0fdfbd2dd8d8d91cad9f7ec18f7f]
reverse link CostAllocationItem to ConsumerCostItem--><path codeLine="43" d="M188.32,381.27 C191.49,396.93 194.79,413.21 197.75,427.87 " fill="none" id="CostAllocationItem-backto-ConsumerCostItem" style="stroke:#A80036;stroke-width:1.0;"/><polygon fill="#A80036" points="185.7,368.32,182.9659,374.9927,188.0737,380.0829,190.8078,373.4102,185.7,368.32" style="stroke:#A80036;stroke-width:1.0;"/><text fill="#000000" font-family="sans-serif" font-size="13" lengthAdjust="spacing" textLength="7" x="179.6481" y="389.5511">1</text><text fill="#000000" font-family="sans-serif" font-size="13" lengthAdjust="spacing" textLength="18" x="177.043" y="416.9802">0,1</text><!--MD5=[51c841fc0435634e5c62595363ee157e]
link ProductCostItem to CostAllocationItem--><path codeLine="45" d="M174,191.01 C174,205.03 174,221.5 174,237.6 " fill="none" id="ProductCostItem-to-CostAllocationItem" style="stroke:#A80036;stroke-width:1.0;"/><polygon fill="#A80036" points="174,250.97,178,244.97,174,238.97,170,244.97,174,250.97" style="stroke:#A80036;stroke-width:1.0;"/><text fill="#000000" font-family="sans-serif" font-size="13" lengthAdjust="spacing" textLength="18" x="154.5094" y="212.1818">0,1</text><text fill="#000000" font-family="sans-serif" font-size="13" lengthAdjust="spacing" textLength="7" x="166.5516" y="239.952">1</text><!--MD5=[cc7a36649d007656ac86f6894d34b66d]
reverse link Product to ProductCostItem--><path codeLine="46" d="M174,68.39 C174,83.07 174,100 174,114.77 " fill="none" id="Product-backto-ProductCostItem" style="stroke:#A80036;stroke-width:1.0;"/><polygon fill="#A80036" points="174,55.14,170,61.14,174,67.14,178,61.14,174,55.14" style="stroke:#A80036;stroke-width:1.0;"/><text fill="#000000" font-family="sans-serif" font-size="13" lengthAdjust="spacing" textLength="7" x="166.1469" y="76.5121">1</text><text fill="#000000" font-family="sans-serif" font-size="13" lengthAdjust="spacing" textLength="7" x="166.3766" y="104.0909">n</text><!--MD5=[93f24e060c9cfe747fd3d5faeb02cfd8]
reverse link CostItem to CloudCostItem--><path codeLine="51" d="M431.35,388.42 C433.63,409.75 435.98,431.61 437.78,448.45 " fill="none" id="CostItem-backto-CloudCostItem" style="stroke:#A80036;stroke-width:1.0;"/><polygon fill="none" points="424.37,388.95,429.19,368.32,438.29,387.46,424.37,388.95" style="stroke:#A80036;stroke-width:1.0;"/><!--MD5=[54f873f8e1b0183acaf771b0b960ee17]
@startuml

class Product

class Service

class Instance
Instance "n" -up-* "1" Service

abstract CostItem {
Date
[Amortized/OnDemand]Cost
Currency
Tags
Dimensions
}
Instance "1" *- - "n" CostItem

package "Service Cost Allocation Data" as CostAllocationCSV {

class CostAllocationItem {
ProviderMeter[Names/Units/Values]
ProviderTagSelector
ProviderCostAllocationType: Key/CloudTagSelector/Cost
ProviderCostAllocationKey
ProviderCostAllocationCloudTagSelector
}

class ProductCostItem {
ProductDimension[Names/Elements]
ProductMeter[Names/Units/Values]
}

class ConsumerCostItem {
ConsumerService
ConsumerInstance
ConsumerDimensions
ConsumerTags
}
}
Instance "1"- -> "n" CostAllocationItem

ConsumerCostItem =up=|> CostItem
CostAllocationItem "1" *-down- "0,1" ConsumerCostItem

ProductCostItem "0,1" -down-* "1" CostAllocationItem
ProductCostItem "n"-up-* "1" Product

class CloudCostItem {
Line (from cloud provider cost data)
}
CloudCostItem =up=|> CostItem

@enduml

PlantUML version 1.2022.1(Tue Feb 01 19:19:58 CET 2022)
(GPL source distribution)
Java Runtime: OpenJDK Runtime Environment
JVM: OpenJDK 64-Bit Server VM
Default Encoding: Cp1252
Language: en
Country: IE
--></g></svg>