<?xml version="1.0" encoding="UTF-8" standalone="no"?><svg xmlns="http://www.w3.org/2000/svg" xmlns:xlink="http://www.w3.org/1999/xlink" contentScriptType="application/ecmascript" contentStyleType="text/css" height="500px" preserveAspectRatio="none" style="width:496px;height:500px;background:#FFFFFF;" version="1.1" viewBox="0 0 496 500" width="496px" zoomAndPan="magnify"><defs><filter height="300%" id="f1fp4hf99fjitu" width="300%" x="-1" y="-1"><feGaussianBlur result="blurOut" stdDeviation="2.0"/><feColorMatrix in="blurOut" result="blurOut2" type="matrix" values="0 0 0 0 0 0 0 0 0 0 0 0 0 0 0 0 0 0 .4 0"/><feOffset dx="4.0" dy="4.0" in="blurOut2" result="blurOut3"/><feBlend in="SourceGraphic" in2="blurOut3" mode="normal"/></filter></defs><g><!--MD5=[5c937046dbf8bbf68282affcfb6aa6db]
entity CloudResource--><path d="M175.7181,448.8724 C179.7807,442.2439 184.747,441.9566 189.9819,447.4984 C192.8456,441.5954 197.6038,439.9232 202.6642,444.9492 C206.776,438.4665 212.522,439.0834 216.8284,444.7218 C220.7274,438.1882 226.2953,436.0829 231.4049,443.4527 C235.5538,436.643 241.0195,437.0189 244.8887,443.7317 C249.2585,438.4712 254.3242,438.641 258.1386,444.3996 C263.8291,437.8157 268.4891,438.313 271.9621,446.478 C276.2898,439.5039 281.5571,439.7673 285.2165,447.0973 C292.9016,451.3314 294.1072,457.7564 287.4348,463.8874 C293.1064,469.3404 291.5552,476.6846 283.844,478.9466 C280.8018,485.5096 276.2111,485.406 271.4829,480.8151 C267.802,487.528 262.7873,488.2623 257.5637,482.5422 C254.3728,491.4716 249.2897,490.4392 243.1389,485.6558 C239.5201,490.8461 235.8671,492.612 231.1795,486.8196 C225.0331,493.8036 220.5529,493.2707 216.5798,484.7705 C212.0842,489.8418 206.9127,489.6707 204.0946,482.9885 C200.4495,488.3927 194.0279,489.1949 190.7609,482.5696 C185.2249,487.2795 179.4882,485.3976 177.3425,478.6121 C167.0692,478.1446 163.7132,472.1728 167.4815,462.8954 C163.9073,454.5965 165.5715,449.1121 175.7181,448.8724 " fill="#FEFECE" filter="url(#f1fp4hf99fjitu)" style="stroke:#000000;stroke-width:1.5;"/><text fill="#000000" font-family="sans-serif" font-size="14" lengthAdjust="spacing" textLength="94" x="182.5" y="468.5332">cloud resource</text><!--MD5=[c34839cc5614f16751a4dd79c5a29378]
entity application1 service--><rect fill="#FEFECE" filter="url(#f1fp4hf99fjitu)" height="47.6094" style="stroke:#A80036;stroke-width:1.5;" width="165" x="7" y="7"/><rect fill="#FEFECE" height="10" style="stroke:#A80036;stroke-width:1.5;" width="15" x="152" y="12"/><rect fill="#FEFECE" height="2" style="stroke:#A80036;stroke-width:1.5;" width="4" x="150" y="14"/><rect fill="#FEFECE" height="2" style="stroke:#A80036;stroke-width:1.5;" width="4" x="150" y="18"/><text fill="#000000" font-family="sans-serif" font-size="14" lengthAdjust="spacing" textLength="125" x="22" y="41.5332">application1 service</text><!--MD5=[6873b70bfd6f5fb0aabc18bcba72dbf2]
entity shared-application service--><rect fill="#FEFECE" filter="url(#f1fp4hf99fjitu)" height="47.6094" style="stroke:#A80036;stroke-width:1.5;" width="206" x="142.5" y="115"/><rect fill="#FEFECE" height="10" style="stroke:#A80036;stroke-width:1.5;" width="15" x="328.5" y="120"/><rect fill="#FEFECE" height="2" style="stroke:#A80036;stroke-width:1.5;" width="4" x="326.5" y="122"/><rect fill="#FEFECE" height="2" style="stroke:#A80036;stroke-width:1.5;" width="4" x="326.5" y="126"/><text fill="#000000" font-family="sans-serif" font-size="14" lengthAdjust="spacing" textLength="166" x="157.5" y="149.5332">shared-application service</text><!--MD5=[5a934037c56083af3895221d2dd8045e]
entity container service--><rect fill="#FEFECE" filter="url(#f1fp4hf99fjitu)" height="47.6094" style="stroke:#A80036;stroke-width:1.5;" width="148" x="92.5" y="331"/><rect fill="#FEFECE" height="10" style="stroke:#A80036;stroke-width:1.5;" width="15" x="220.5" y="336"/><rect fill="#FEFECE" height="2" style="stroke:#A80036;stroke-width:1.5;" width="4" x="218.5" y="338"/><rect fill="#FEFECE" height="2" style="stroke:#A80036;stroke-width:1.5;" width="4" x="218.5" y="342"/><text fill="#000000" font-family="sans-serif" font-size="14" lengthAdjust="spacing" textLength="108" x="107.5" y="365.5332">container service</text><!--MD5=[b94033164d2bb205088894b6e3f48b0f]
entity monitoring service--><rect fill="#FEFECE" filter="url(#f1fp4hf99fjitu)" height="47.6094" style="stroke:#A80036;stroke-width:1.5;" width="155" x="216" y="223"/><rect fill="#FEFECE" height="10" style="stroke:#A80036;stroke-width:1.5;" width="15" x="351" y="228"/><rect fill="#FEFECE" height="2" style="stroke:#A80036;stroke-width:1.5;" width="4" x="349" y="230"/><rect fill="#FEFECE" height="2" style="stroke:#A80036;stroke-width:1.5;" width="4" x="349" y="234"/><text fill="#000000" font-family="sans-serif" font-size="14" lengthAdjust="spacing" textLength="115" x="231" y="257.5332">monitoring service</text><!--MD5=[2c95c622544f8ef34ebf4f328dbeaca1]
entity application2 service--><rect fill="#FEFECE" filter="url(#f1fp4hf99fjitu)" height="47.6094" style="stroke:#A80036;stroke-width:1.5;" width="165" x="319" y="7"/><rect fill="#FEFECE" height="10" style="stroke:#A80036;stroke-width:1.5;" width="15" x="464" y="12"/><rect fill="#FEFECE" height="2" style="stroke:#A80036;stroke-width:1.5;" width="4" x="462" y="14"/><rect fill="#FEFECE" height="2" style="stroke:#A80036;stroke-width:1.5;" width="4" x="462" y="18"/><text fill="#000000" font-family="sans-serif" font-size="14" lengthAdjust="spacing" textLength="125" x="334" y="41.5332">application2 service</text><!--MD5=[66bc3ea50fbcb94e9ef1ba1155672ac6]
link application1 service to shared-application service--><path d="M123.35,55 C148,71.75 181.42,94.46 207.08,111.89 " fill="none" id="application1 service-to-shared-application service" style="stroke:#A80036;stroke-width:1.0;"/><polygon fill="#A80036" points="211.45,114.86,206.253,106.494,207.314,112.0504,201.7576,113.1115,211.45,114.86" style="stroke:#A80036;stroke-width:1.0;"/><!--MD5=[b36dc50b4afbc167ce34a524140a6fbf]
link application1 service to container service--><path d="M87.88,55.46 C86.6,81.88 86.08,125.97 93.5,163 C105.62,223.46 134.9,289.81 152.47,326.22 " fill="none" id="application1 service-to-container service" style="stroke:#A80036;stroke-width:1.0;"/><polygon fill="#A80036" points="154.77,330.94,154.4359,321.0968,152.5855,326.4425,147.2398,324.592,154.77,330.94" style="stroke:#A80036;stroke-width:1.0;"/><!--MD5=[f71bfdc26434c7007a6499eccbd73afe]
link application1 service to monitoring service--><path d="M90.05,55.2 C91.87,83.61 98.87,131.8 124.5,163 C146.66,189.97 179.74,208.89 210.77,221.77 " fill="none" id="application1 service-to-monitoring service" style="stroke:#A80036;stroke-width:1.0;"/><polygon fill="#A80036" points="215.73,223.78,208.9044,216.68,211.0995,221.8935,205.886,224.0887,215.73,223.78" style="stroke:#A80036;stroke-width:1.0;"/><!--MD5=[f9722b58c5a7cc3dbe933c732cb23c04]
link application2 service to shared-application service--><path d="M367.65,55 C343,71.75 309.58,94.46 283.92,111.89 " fill="none" id="application2 service-to-shared-application service" style="stroke:#A80036;stroke-width:1.0;"/><polygon fill="#A80036" points="279.55,114.86,289.2424,113.1115,283.686,112.0504,284.747,106.494,279.55,114.86" style="stroke:#A80036;stroke-width:1.0;"/><!--MD5=[9be175c1c9da42982225ed3f657b0593]
link application2 service to container service--><path d="M408.08,55.04 C419.82,101.43 438.72,207.14 388.5,271 C354.2,314.62 294.42,335.32 245.53,345.14 " fill="none" id="application2 service-to-container service" style="stroke:#A80036;stroke-width:1.0;"/><polygon fill="#A80036" points="240.54,346.11,250.1399,348.3104,245.4473,345.1514,248.6062,340.4588,240.54,346.11" style="stroke:#A80036;stroke-width:1.0;"/><!--MD5=[df2253bdc92ef320584d9b66dff87680]
link application2 service to monitoring service--><path d="M398.29,55.41 C393.86,82.56 384.2,128.06 365.5,163 C354.38,183.78 337.23,203.83 322.45,219.02 " fill="none" id="application2 service-to-monitoring service" style="stroke:#A80036;stroke-width:1.0;"/><polygon fill="#A80036" points="318.75,222.77,327.9208,219.1788,322.264,219.2131,322.2298,213.5564,318.75,222.77" style="stroke:#A80036;stroke-width:1.0;"/><!--MD5=[5bef36f5547ed03e21a39247f02e445a]
link shared-application service to container service--><path d="M230.12,163.11 C219.92,179.3 206.92,201.76 198.5,223 C184.99,257.07 176.04,298.47 171.12,325.48 " fill="none" id="shared-application service-to-container service" style="stroke:#A80036;stroke-width:1.0;"/><polygon fill="#A80036" points="170.19,330.69,175.7,322.5267,171.063,325.7668,167.8229,321.1298,170.19,330.69" style="stroke:#A80036;stroke-width:1.0;"/><!--MD5=[018dedb6e93b199d7208a00d9b790d83]
link shared-application service to monitoring service--><path d="M255.92,163 C263.22,179.14 273.04,200.82 280.81,217.97 " fill="none" id="shared-application service-to-monitoring service" style="stroke:#A80036;stroke-width:1.0;"/><polygon fill="#A80036" points="282.94,222.68,282.8572,212.8315,280.871,218.1282,275.5743,216.1419,282.94,222.68" style="stroke:#A80036;stroke-width:1.0;"/><!--MD5=[f555e2aa95d278e011f1af86a1bfd414]
link monitoring service to container service--><path d="M265.94,271 C246.11,287.55 219.3,309.93 198.51,327.28 " fill="none" id="monitoring service-to-container service" style="stroke:#A80036;stroke-width:1.0;"/><polygon fill="#A80036" points="194.44,330.68,203.9157,327.9947,198.2823,327.4805,198.7965,321.847,194.44,330.68" style="stroke:#A80036;stroke-width:1.0;"/><!--MD5=[c2650dce69473f026d78fec81a843ee3]
link monitoring service to CloudResource--><path d="M287.53,271.31 C280.69,297.59 268.95,341.56 257.5,379 C251.86,397.45 244.93,418 239.38,434.04 " fill="none" id="monitoring service-to-CloudResource" style="stroke:#A80036;stroke-width:1.0;"/><polygon fill="#A80036" points="237.7,438.86,244.4321,431.6712,239.3409,434.1369,236.8752,429.0457,237.7,438.86" style="stroke:#A80036;stroke-width:1.0;"/><!--MD5=[77d4ab6b663a8e8db3643820062d3486]
link container service to CloudResource--><path d="M180.17,379 C189.76,395.14 202.65,416.82 212.84,433.97 " fill="none" id="container service-to-CloudResource" style="stroke:#A80036;stroke-width:1.0;"/><polygon fill="#A80036" points="215.64,438.68,214.5019,428.8971,213.0949,434.3762,207.6158,432.9693,215.64,438.68" style="stroke:#A80036;stroke-width:1.0;"/><!--MD5=[fc3807269d0ce8ddad9b9b24ded239f9]
@startuml

cloud CloudResource as "cloud resource"

[application1 service] -down-> [shared-application service]
[application1 service] -down-> [container service]
[application1 service] -down-> [monitoring service]

[application2 service] -down-> [shared-application service]
[application2 service] -down-> [container service]
[application2 service] -down-> [monitoring service]

[shared-application service] -down-> [container service]
[shared-application service] -down-> [monitoring service]

[monitoring service] -down-> [container service]
[monitoring service] -down-> CloudResource

[container service] -down-> CloudResource

@enduml

PlantUML version 1.2022.1(Tue Feb 01 19:19:58 CET 2022)
(GPL source distribution)
Java Runtime: OpenJDK Runtime Environment
JVM: OpenJDK 64-Bit Server VM
Default Encoding: Cp1252
Language: en
Country: IE
--></g></svg>