<?xml version="1.0" encoding="UTF-8" standalone="no"?><svg xmlns="http://www.w3.org/2000/svg" xmlns:xlink="http://www.w3.org/1999/xlink" contentScriptType="application/ecmascript" contentStyleType="text/css" height="738px" preserveAspectRatio="none" style="width:412px;height:738px;background:#FFFFFF;" version="1.1" viewBox="0 0 412 738" width="412px" zoomAndPan="magnify"><defs><filter height="300%" id="fc1m5mnn0vp3" width="300%" x="-1" y="-1"><feGaussianBlur result="blurOut" stdDeviation="2.0"/><feColorMatrix in="blurOut" result="blurOut2" type="matrix" values="0 0 0 0 0 0 0 0 0 0 0 0 0 0 0 0 0 0 .4 0"/><feOffset dx="4.0" dy="4.0" in="blurOut2" result="blurOut3"/><feBlend in="SourceGraphic" in2="blurOut3" mode="normal"/></filter></defs><g><!--MD5=[8f34ec78fe4d318ad67cceb320f6ac1a]
entity B2cProduct--><polygon fill="#FEFECE" filter="url(#fc1m5mnn0vp3)" points="223,16,233,6,395,6,395,61.2188,385,71.2188,223,71.2188,223,16" style="stroke:#000000;stroke-width:1.5;"/><line style="stroke:#000000;stroke-width:1.5;" x1="385" x2="395" y1="16" y2="6"/><line style="stroke:#000000;stroke-width:1.5;" x1="223" x2="385" y1="16" y2="16"/><line style="stroke:#000000;stroke-width:1.5;" x1="385" x2="385" y1="16" y2="71.2188"/><text fill="#000000" font-family="sans-serif" font-size="14" lengthAdjust="spacing" textLength="77" x="265.5" y="40.5332">B2c Product</text><text fill="#000000" font-family="sans-serif" font-size="14" font-style="italic" lengthAdjust="spacing" textLength="132" x="238" y="58.1426">Monthly Active Users</text><!--MD5=[5753aa37ce09f116110bf37a65797470]
entity B2bProduct--><polygon fill="#FEFECE" filter="url(#fc1m5mnn0vp3)" points="16,16,26,6,188,6,188,61.2188,178,71.2188,16,71.2188,16,16" style="stroke:#000000;stroke-width:1.5;"/><line style="stroke:#000000;stroke-width:1.5;" x1="178" x2="188" y1="16" y2="6"/><line style="stroke:#000000;stroke-width:1.5;" x1="16" x2="178" y1="16" y2="16"/><line style="stroke:#000000;stroke-width:1.5;" x1="178" x2="178" y1="16" y2="71.2188"/><text fill="#000000" font-family="sans-serif" font-size="14" lengthAdjust="spacing" textLength="78" x="58" y="40.5332">B2b Product</text><text fill="#000000" font-family="sans-serif" font-size="14" font-style="italic" lengthAdjust="spacing" textLength="132" x="31" y="58.1426">Monthly Active Users</text><!--MD5=[b735ab7a7def0db4a3aea080b110cc9f]
entity WebService--><rect fill="#FEFECE" filter="url(#fc1m5mnn0vp3)" height="65.2188" style="stroke:#A80036;stroke-width:1.5;" width="136" x="241" y="131"/><rect fill="#FEFECE" height="10" style="stroke:#A80036;stroke-width:1.5;" width="15" x="357" y="136"/><rect fill="#FEFECE" height="2" style="stroke:#A80036;stroke-width:1.5;" width="4" x="355" y="138"/><rect fill="#FEFECE" height="2" style="stroke:#A80036;stroke-width:1.5;" width="4" x="355" y="142"/><text fill="#000000" font-family="sans-serif" font-size="14" lengthAdjust="spacing" textLength="80" x="264" y="165.5332">Web Service</text><text fill="#000000" font-family="sans-serif" font-size="14" font-style="italic" lengthAdjust="spacing" textLength="96" x="256" y="183.1426">HTTP requests</text><!--MD5=[8339b1ea100f39f5604788d7073e2af8]
entity ReportingService--><rect fill="#FEFECE" filter="url(#fc1m5mnn0vp3)" height="65.2188" style="stroke:#A80036;stroke-width:1.5;" width="153" x="25.5" y="131"/><rect fill="#FEFECE" height="10" style="stroke:#A80036;stroke-width:1.5;" width="15" x="158.5" y="136"/><rect fill="#FEFECE" height="2" style="stroke:#A80036;stroke-width:1.5;" width="4" x="156.5" y="138"/><rect fill="#FEFECE" height="2" style="stroke:#A80036;stroke-width:1.5;" width="4" x="156.5" y="142"/><text fill="#000000" font-family="sans-serif" font-size="14" lengthAdjust="spacing" textLength="113" x="40.5" y="165.5332">Reporting Service</text><text fill="#000000" font-family="sans-serif" font-size="14" font-style="italic" lengthAdjust="spacing" textLength="50" x="72" y="183.1426">Reports</text><!--MD5=[2bbfd2af96f597f9b19867feca9e9302]
entity HistoryService--><rect fill="#FEFECE" filter="url(#fc1m5mnn0vp3)" height="65.2188" style="stroke:#A80036;stroke-width:1.5;" width="134" x="139" y="256"/><rect fill="#FEFECE" height="10" style="stroke:#A80036;stroke-width:1.5;" width="15" x="253" y="261"/><rect fill="#FEFECE" height="2" style="stroke:#A80036;stroke-width:1.5;" width="4" x="251" y="263"/><rect fill="#FEFECE" height="2" style="stroke:#A80036;stroke-width:1.5;" width="4" x="251" y="267"/><text fill="#000000" font-family="sans-serif" font-size="14" lengthAdjust="spacing" textLength="94" x="154" y="290.5332">History Service</text><text fill="#000000" font-family="sans-serif" font-size="14" font-style="italic" lengthAdjust="spacing" textLength="53" x="174.5" y="308.1426">Records</text><!--MD5=[ec17489ddffd89f37c579cb0e468b35a]
entity MonitoringService--><rect fill="#FEFECE" filter="url(#fc1m5mnn0vp3)" height="65.2188" style="stroke:#A80036;stroke-width:1.5;" width="157" x="92.5" y="381"/><rect fill="#FEFECE" height="10" style="stroke:#A80036;stroke-width:1.5;" width="15" x="229.5" y="386"/><rect fill="#FEFECE" height="2" style="stroke:#A80036;stroke-width:1.5;" width="4" x="227.5" y="388"/><rect fill="#FEFECE" height="2" style="stroke:#A80036;stroke-width:1.5;" width="4" x="227.5" y="392"/><text fill="#000000" font-family="sans-serif" font-size="14" lengthAdjust="spacing" textLength="117" x="107.5" y="415.5332">Monitoring Service</text><text fill="#000000" font-family="sans-serif" font-size="14" font-style="italic" lengthAdjust="spacing" textLength="74" x="129" y="433.1426">Time-series</text><!--MD5=[397418859ac4496f243b5f8c23ca6d2a]
entity ContainerService--><rect fill="#FEFECE" filter="url(#fc1m5mnn0vp3)" height="65.2188" style="stroke:#A80036;stroke-width:1.5;" width="161" x="222.5" y="506"/><rect fill="#FEFECE" height="10" style="stroke:#A80036;stroke-width:1.5;" width="15" x="363.5" y="511"/><rect fill="#FEFECE" height="2" style="stroke:#A80036;stroke-width:1.5;" width="4" x="361.5" y="513"/><rect fill="#FEFECE" height="2" style="stroke:#A80036;stroke-width:1.5;" width="4" x="361.5" y="517"/><text fill="#000000" font-family="sans-serif" font-size="14" lengthAdjust="spacing" textLength="113" x="241.5" y="540.5332">Container Service</text><text fill="#000000" font-family="sans-serif" font-size="14" font-style="italic" lengthAdjust="spacing" textLength="121" x="237.5" y="558.1426">Container requests</text><!--MD5=[5c937046dbf8bbf68282affcfb6aa6db]
entity CloudResource--><path d="M179.938,640.4586 C182.8193,634.4195 187.2465,634.2556 191.2226,639.3487 C194.4227,633.5449 198.7955,632.7292 203.3793,637.8021 C206.2771,632.5536 210.3119,631.7111 214.0705,636.9222 C217.315,631.2336 222.1369,631.4454 225.9382,636.2952 C228.412,629.4836 232.6509,628.9822 237.3273,634.2119 C241.0776,629.9933 246.321,630.3285 247.7642,636.524 C251.0705,631.3313 256.7448,631.2396 259.4944,637.114 C263.2708,631.831 268.7457,631.0001 271.6978,637.9371 C276.5016,632.9943 280.8826,633.1802 283.6809,639.983 C287.3466,634.5615 291.283,635.7493 294.2866,640.6626 C303.2197,643.5052 303.1793,650.8758 297.3508,656.5632 C303.6584,662.0858 302.0797,669.0686 294.6431,672.2132 C291.3025,677.1806 287.6479,676.9864 284.4618,672.0542 C281.7222,679.5486 276.4792,680.7578 271.3663,674.2782 C268.7013,678.7076 264.171,679.1451 261.3482,674.4515 C256.6666,680.3635 252.4579,680.6967 247.9548,674.2579 C244.7184,679.9532 241.1191,679.2067 237.4974,674.6509 C232.9739,680.6724 229.1356,679.8541 225.0715,674.1634 C222.498,679.315 217.3737,680.3523 214.3348,674.6227 C210.0626,679.8909 205.559,680.3704 202.1125,673.7722 C197.7477,678.1808 193.4363,678.6301 190.1481,672.5448 C185.8241,677.6026 181.9214,676.7874 179.1999,670.9364 C168.4217,672.6138 164.2743,665.1652 168.4301,656.0432 C164.4005,644.7154 168.3781,640.2748 179.938,640.4586 " fill="#FEFECE" filter="url(#fc1m5mnn0vp3)" style="stroke:#000000;stroke-width:1.5;"/><text fill="#000000" font-family="sans-serif" font-size="14" lengthAdjust="spacing" textLength="102" x="185" y="660.5332">Cloud Resource</text><!--MD5=[453427480be004edc3b4ff25d78d46e2]
reverse link B2cProduct to WebService--><path d="M309,76.46 C309,93.82 309,114.31 309,130.93 " fill="none" id="B2cProduct-backto-WebService" style="stroke:#A80036;stroke-width:1.0;"/><polygon fill="#A80036" points="309,71.18,305,80.18,309,76.18,313,80.18,309,71.18" style="stroke:#A80036;stroke-width:1.0;"/><!--MD5=[4ca649194ae2fa65d5d6f177c89335b7]
reverse link B2cProduct to ReportingService--><path d="M251.56,73.63 C221.43,91.53 184.75,113.33 155.26,130.85 " fill="none" id="B2cProduct-backto-ReportingService" style="stroke:#A80036;stroke-width:1.0;"/><polygon fill="#A80036" points="255.96,71.02,246.1817,72.1965,251.6662,73.5819,250.2808,79.0665,255.96,71.02" style="stroke:#A80036;stroke-width:1.0;"/><!--MD5=[a8a67f276ec8b922b475e8ba6f1ae86a]
reverse link B2bProduct to WebService--><path d="M159.44,73.63 C189.57,91.53 226.25,113.33 255.74,130.85 " fill="none" id="B2bProduct-backto-WebService" style="stroke:#A80036;stroke-width:1.0;"/><polygon fill="#A80036" points="155.04,71.02,160.7192,79.0665,159.3338,73.5819,164.8183,72.1965,155.04,71.02" style="stroke:#A80036;stroke-width:1.0;"/><!--MD5=[f7052b366ea0d4cfb3db9240bceaa345]
reverse link B2bProduct to ReportingService--><path d="M102,76.46 C102,93.82 102,114.31 102,130.93 " fill="none" id="B2bProduct-backto-ReportingService" style="stroke:#A80036;stroke-width:1.0;"/><polygon fill="#A80036" points="102,71.18,98,80.18,102,76.18,106,80.18,102,71.18" style="stroke:#A80036;stroke-width:1.0;"/><!--MD5=[53c7bfb21cb3bda6ec57e729f8b03315]
reverse link WebService to HistoryService--><path d="M279.18,200.12 C264.4,217.76 246.72,238.88 232.44,255.93 " fill="none" id="WebService-backto-HistoryService" style="stroke:#A80036;stroke-width:1.0;"/><polygon fill="#A80036" points="282.47,196.18,273.637,200.5365,279.2705,200.0223,279.7847,205.6557,282.47,196.18" style="stroke:#A80036;stroke-width:1.0;"/><!--MD5=[d67d38cac8b4928057053980b370537e]
reverse link WebService to ContainerService--><path d="M317.39,201.11 C320.8,217.76 324.32,237.77 326,256 C334.34,346.58 318.52,453.69 309.17,505.82 " fill="none" id="WebService-backto-ContainerService" style="stroke:#A80036;stroke-width:1.0;"/><polygon fill="#A80036" points="316.34,196.06,314.2529,205.6852,317.3563,200.9556,322.0859,204.059,316.34,196.06" style="stroke:#A80036;stroke-width:1.0;"/><!--MD5=[e401fec4c0f451135b4d6e2deff27b78]
reverse link WebService to MonitoringService--><path d="M312.6,201.33 C314.12,234.73 311.91,284.21 291,321 C276.95,345.71 253.26,365.91 230.61,380.99 " fill="none" id="WebService-backto-MonitoringService" style="stroke:#A80036;stroke-width:1.0;"/><polygon fill="#A80036" points="312.32,196.11,308.8152,205.3141,312.5918,201.1026,316.8033,204.8792,312.32,196.11" style="stroke:#A80036;stroke-width:1.0;"/><!--MD5=[293b932e1075b4b629d6459e9067811b]
reverse link ReportingService to HistoryService--><path d="M132.11,200.12 C147.03,217.76 164.89,238.88 179.31,255.93 " fill="none" id="ReportingService-backto-HistoryService" style="stroke:#A80036;stroke-width:1.0;"/><polygon fill="#A80036" points="128.78,196.18,131.5241,205.6389,132.0033,200.0023,137.6398,200.4816,128.78,196.18" style="stroke:#A80036;stroke-width:1.0;"/><!--MD5=[1e60ccc9d3e6029307d93f312f8cd000]
reverse link ReportingService to ContainerService--><path d="M84.91,200.72 C60.61,258.09 24.31,371.04 75,446 C107.73,494.41 170.73,517.21 222.22,527.95 " fill="none" id="ReportingService-backto-ContainerService" style="stroke:#A80036;stroke-width:1.0;"/><polygon fill="#A80036" points="86.93,196.02,79.7081,202.7166,84.9604,200.6157,87.0613,205.868,86.93,196.02" style="stroke:#A80036;stroke-width:1.0;"/><!--MD5=[61a930fd823f3b51f351c3921808130b]
reverse link ReportingService to MonitoringService--><path d="M102.56,201.16 C103.96,233.42 108.26,281.3 121,321 C127.75,342.03 139.42,363.8 149.79,380.82 " fill="none" id="ReportingService-backto-MonitoringService" style="stroke:#A80036;stroke-width:1.0;"/><polygon fill="#A80036" points="102.36,196.13,98.724,205.2831,102.5604,201.126,106.7175,204.9624,102.36,196.13" style="stroke:#A80036;stroke-width:1.0;"/><!--MD5=[670ab148b72b21b8018a7df25a03bba5]
reverse link HistoryService to ContainerService--><path d="M234.59,325.76 C246.12,341.89 258.64,361.61 267,381 C284.77,422.22 294.43,473.49 299.15,505.87 " fill="none" id="HistoryService-backto-ContainerService" style="stroke:#A80036;stroke-width:1.0;"/><polygon fill="#A80036" points="231.37,321.3,233.3942,330.9386,234.2964,325.3541,239.8809,326.2563,231.37,321.3" style="stroke:#A80036;stroke-width:1.0;"/><!--MD5=[75d9fd8493574ed67bc551bec479befa]
reverse link HistoryService to MonitoringService--><path d="M195.61,326.01 C190.64,343.47 184.75,364.16 179.98,380.93 " fill="none" id="HistoryService-backto-MonitoringService" style="stroke:#A80036;stroke-width:1.0;"/><polygon fill="#A80036" points="196.99,321.18,190.6981,328.7571,195.6334,325.9924,198.398,330.9277,196.99,321.18" style="stroke:#A80036;stroke-width:1.0;"/><!--MD5=[5c0741931632e1e49f6d07c0ab9d3945]
reverse link MonitoringService to ContainerService--><path d="M208.74,449.67 C227.77,467.4 250.66,488.73 269.12,505.93 " fill="none" id="MonitoringService-backto-ContainerService" style="stroke:#A80036;stroke-width:1.0;"/><polygon fill="#A80036" points="204.99,446.18,208.8579,455.2376,208.6519,449.5844,214.305,449.3785,204.99,446.18" style="stroke:#A80036;stroke-width:1.0;"/><!--MD5=[4e1ce66e34e6997e275b473d07adbfe3]
reverse link MonitoringService to CloudResource--><path d="M177.39,451 C183.35,482.96 193.1,530.48 205,571 C211.03,591.51 219.65,614.22 226.27,630.69 " fill="none" id="MonitoringService-backto-CloudResource" style="stroke:#A80036;stroke-width:1.0;"/><polygon fill="#A80036" points="176.47,446.01,174.1837,455.5898,177.3845,450.9257,182.0487,454.1265,176.47,446.01" style="stroke:#A80036;stroke-width:1.0;"/><!--MD5=[0d2f5299a707680653fac0b3a709c897]
reverse link ContainerService to CloudResource--><path d="M281.87,575.61 C271.3,593.68 258.81,615.02 249.54,630.86 " fill="none" id="ContainerService-backto-CloudResource" style="stroke:#A80036;stroke-width:1.0;"/><polygon fill="#A80036" points="284.51,571.09,276.5082,576.8321,281.9818,575.4037,283.4101,580.8773,284.51,571.09" style="stroke:#A80036;stroke-width:1.0;"/><rect fill="#DDDDDD" height="27.6094" rx="5" ry="5" style="stroke:#000000;stroke-width:1.0;" width="156" x="121" y="694.7578"/><text fill="#000000" font-family="sans-serif" font-size="14" lengthAdjust="spacing" textLength="144" x="127" y="714.291">-&gt; allocates its costs to</text><!--MD5=[bbedbdabfffdf933d9cbb8d7500ddc73]
@startuml

skinparam defaultTextAlignment center

node B2cProduct as "B2c Product\n//Monthly Active Users//"
node B2bProduct as "B2b Product\n//Monthly Active Users//"

component WebService as "Web Service\n//HTTP requests//"
component ReportingService as "Reporting Service\n//Reports//"
component HistoryService as "History Service\n//Records//"
component MonitoringService as "Monitoring Service\n//Time-series//"
component ContainerService as "Container Service\n//Container requests//"

cloud CloudResource as "Cloud Resource"

B2cProduct <-down- WebService
B2cProduct <-down- ReportingService

B2bProduct <-down- WebService
B2bProduct <-down- ReportingService

WebService <-down- HistoryService
WebService <-down- ContainerService
WebService <-down- MonitoringService

ReportingService <-down- HistoryService
ReportingService <-down- ContainerService
ReportingService <-down- MonitoringService

HistoryService <-down- ContainerService
HistoryService <-down- MonitoringService

MonitoringService <-down- ContainerService
MonitoringService <-down- CloudResource

ContainerService <-down- CloudResource

legend
-> allocates its costs to
end legend

@enduml

PlantUML version 1.2022.1(Tue Feb 01 19:19:58 CET 2022)
(GPL source distribution)
Java Runtime: OpenJDK Runtime Environment
JVM: OpenJDK 64-Bit Server VM
Default Encoding: Cp1252
Language: en
Country: IE
--></g></svg>