<?xml version="1.0" encoding="UTF-8" standalone="no"?><svg xmlns="http://www.w3.org/2000/svg" xmlns:xlink="http://www.w3.org/1999/xlink" contentScriptType="application/ecmascript" contentStyleType="text/css" height="743px" preserveAspectRatio="none" style="width:412px;height:743px;background:#FFFFFF;" version="1.1" viewBox="0 0 412 743" width="412px" zoomAndPan="magnify"><defs><filter height="300%" id="fj9givyzhgvgg" width="300%" x="-1" y="-1"><feGaussianBlur result="blurOut" stdDeviation="2.0"/><feColorMatrix in="blurOut" result="blurOut2" type="matrix" values="0 0 0 0 0 0 0 0 0 0 0 0 0 0 0 0 0 0 .4 0"/><feOffset dx="4.0" dy="4.0" in="blurOut2" result="blurOut3"/><feBlend in="SourceGraphic" in2="blurOut3" mode="normal"/></filter></defs><g><!--MD5=[8f34ec78fe4d318ad67cceb320f6ac1a]
entity B2cProduct--><polygon fill="#FEFECE" filter="url(#fj9givyzhgvgg)" points="88,16,98,6,205,6,205,43.6094,195,53.6094,88,53.6094,88,16" style="stroke:#000000;stroke-width:1.5;"/><line style="stroke:#000000;stroke-width:1.5;" x1="195" x2="205" y1="16" y2="6"/><line style="stroke:#000000;stroke-width:1.5;" x1="88" x2="195" y1="16" y2="16"/><line style="stroke:#000000;stroke-width:1.5;" x1="195" x2="195" y1="16" y2="53.6094"/><text fill="#000000" font-family="sans-serif" font-size="14" lengthAdjust="spacing" textLength="77" x="103" y="40.5332">B2c Product</text><!--MD5=[5753aa37ce09f116110bf37a65797470]
entity B2bProduct--><polygon fill="#FEFECE" filter="url(#fj9givyzhgvgg)" points="254.5,16,264.5,6,372.5,6,372.5,43.6094,362.5,53.6094,254.5,53.6094,254.5,16" style="stroke:#000000;stroke-width:1.5;"/><line style="stroke:#000000;stroke-width:1.5;" x1="362.5" x2="372.5" y1="16" y2="6"/><line style="stroke:#000000;stroke-width:1.5;" x1="254.5" x2="362.5" y1="16" y2="16"/><line style="stroke:#000000;stroke-width:1.5;" x1="362.5" x2="362.5" y1="16" y2="53.6094"/><text fill="#000000" font-family="sans-serif" font-size="14" lengthAdjust="spacing" textLength="78" x="269.5" y="40.5332">B2b Product</text><!--MD5=[b735ab7a7def0db4a3aea080b110cc9f]
entity WebService--><rect fill="#FEFECE" filter="url(#fj9givyzhgvgg)" height="47.6094" style="stroke:#A80036;stroke-width:1.5;" width="120" x="268.5" y="132"/><rect fill="#FEFECE" height="10" style="stroke:#A80036;stroke-width:1.5;" width="15" x="368.5" y="137"/><rect fill="#FEFECE" height="2" style="stroke:#A80036;stroke-width:1.5;" width="4" x="366.5" y="139"/><rect fill="#FEFECE" height="2" style="stroke:#A80036;stroke-width:1.5;" width="4" x="366.5" y="143"/><text fill="#000000" font-family="sans-serif" font-size="14" lengthAdjust="spacing" textLength="80" x="283.5" y="166.5332">Web Service</text><!--MD5=[8339b1ea100f39f5604788d7073e2af8]
entity ReportingService--><rect fill="#FEFECE" filter="url(#fj9givyzhgvgg)" height="47.6094" style="stroke:#A80036;stroke-width:1.5;" width="153" x="42" y="132"/><rect fill="#FEFECE" height="10" style="stroke:#A80036;stroke-width:1.5;" width="15" x="175" y="137"/><rect fill="#FEFECE" height="2" style="stroke:#A80036;stroke-width:1.5;" width="4" x="173" y="139"/><rect fill="#FEFECE" height="2" style="stroke:#A80036;stroke-width:1.5;" width="4" x="173" y="143"/><text fill="#000000" font-family="sans-serif" font-size="14" lengthAdjust="spacing" textLength="113" x="57" y="166.5332">Reporting Service</text><!--MD5=[2bbfd2af96f597f9b19867feca9e9302]
entity HistoryService--><rect fill="#FEFECE" filter="url(#fj9givyzhgvgg)" height="47.6094" style="stroke:#A80036;stroke-width:1.5;" width="134" x="158.5" y="258"/><rect fill="#FEFECE" height="10" style="stroke:#A80036;stroke-width:1.5;" width="15" x="272.5" y="263"/><rect fill="#FEFECE" height="2" style="stroke:#A80036;stroke-width:1.5;" width="4" x="270.5" y="265"/><rect fill="#FEFECE" height="2" style="stroke:#A80036;stroke-width:1.5;" width="4" x="270.5" y="269"/><text fill="#000000" font-family="sans-serif" font-size="14" lengthAdjust="spacing" textLength="94" x="173.5" y="292.5332">History Service</text><!--MD5=[ec17489ddffd89f37c579cb0e468b35a]
entity MonitoringService--><rect fill="#FEFECE" filter="url(#fj9givyzhgvgg)" height="47.6094" style="stroke:#A80036;stroke-width:1.5;" width="157" x="77" y="384"/><rect fill="#FEFECE" height="10" style="stroke:#A80036;stroke-width:1.5;" width="15" x="214" y="389"/><rect fill="#FEFECE" height="2" style="stroke:#A80036;stroke-width:1.5;" width="4" x="212" y="391"/><rect fill="#FEFECE" height="2" style="stroke:#A80036;stroke-width:1.5;" width="4" x="212" y="395"/><text fill="#000000" font-family="sans-serif" font-size="14" lengthAdjust="spacing" textLength="117" x="92" y="418.5332">Monitoring Service</text><!--MD5=[397418859ac4496f243b5f8c23ca6d2a]
entity ContainerService--><rect fill="#FEFECE" filter="url(#fj9givyzhgvgg)" height="47.6094" style="stroke:#A80036;stroke-width:1.5;" width="153" x="221" y="510"/><rect fill="#FEFECE" height="10" style="stroke:#A80036;stroke-width:1.5;" width="15" x="354" y="515"/><rect fill="#FEFECE" height="2" style="stroke:#A80036;stroke-width:1.5;" width="4" x="352" y="517"/><rect fill="#FEFECE" height="2" style="stroke:#A80036;stroke-width:1.5;" width="4" x="352" y="521"/><text fill="#000000" font-family="sans-serif" font-size="14" lengthAdjust="spacing" textLength="113" x="236" y="544.5332">Container Service</text><!--MD5=[5c937046dbf8bbf68282affcfb6aa6db]
entity CloudResource--><path d="M128.438,645.4586 C131.3193,639.4195 135.7465,639.2556 139.7226,644.3487 C142.9227,638.5449 147.2955,637.7292 151.8793,642.8021 C154.7771,637.5536 158.8119,636.7111 162.5705,641.9222 C165.815,636.2336 170.6369,636.4454 174.4382,641.2952 C176.912,634.4836 181.1509,633.9822 185.8273,639.2119 C189.5776,634.9933 194.821,635.3285 196.2642,641.524 C199.5705,636.3313 205.2448,636.2396 207.9944,642.114 C211.7708,636.831 217.2457,636.0001 220.1978,642.9371 C225.0016,637.9943 229.3826,638.1802 232.1809,644.983 C235.8466,639.5615 239.783,640.7493 242.7866,645.6626 C251.7197,648.5052 251.6793,655.8758 245.8508,661.5632 C252.1584,667.0858 250.5797,674.0686 243.1431,677.2132 C239.8025,682.1806 236.1479,681.9864 232.9618,677.0542 C230.2222,684.5486 224.9792,685.7578 219.8663,679.2782 C217.2013,683.7076 212.671,684.1451 209.8482,679.4515 C205.1666,685.3635 200.9579,685.6967 196.4548,679.2579 C193.2184,684.9532 189.6191,684.2067 185.9974,679.6509 C181.4739,685.6724 177.6356,684.8541 173.5715,679.1634 C170.998,684.315 165.8737,685.3523 162.8348,679.6227 C158.5626,684.8909 154.059,685.3704 150.6125,678.7722 C146.2477,683.1808 141.9363,683.6301 138.6481,677.5448 C134.3241,682.6026 130.4214,681.7874 127.6999,675.9364 C116.9217,677.6138 112.7743,670.1652 116.9301,661.0432 C112.9005,649.7154 116.8781,645.2748 128.438,645.4586 " fill="#FEFECE" filter="url(#fj9givyzhgvgg)" style="stroke:#000000;stroke-width:1.5;"/><text fill="#000000" font-family="sans-serif" font-size="14" lengthAdjust="spacing" textLength="102" x="133.5" y="665.5332">Cloud Resource</text><!--MD5=[70c3feecba8d448f714d11b0fe114637]
link B2cProduct to WebService--><path d="M154.36,54.27 C160.62,69.68 170.81,89.32 185.5,102 C207.49,120.97 236.89,133.41 263.31,141.44 " fill="none" id="B2cProduct-to-WebService" style="stroke:#A80036;stroke-width:1.0;"/><polygon fill="#A80036" points="268.2,142.88,260.7026,136.4933,263.405,141.463,258.4354,144.1653,268.2,142.88" style="stroke:#A80036;stroke-width:1.0;"/><text fill="#000000" font-family="sans-serif" font-size="13" lengthAdjust="spacing" textLength="28" x="186.5" y="98.4951">uses</text><!--MD5=[49b0a8401dce61a66e4c7ec457e833c0]
link B2cProduct to ReportingService--><path d="M129.43,54.07 C123.85,62.96 118.35,73.51 115.5,84 C111.77,97.77 112.02,113.59 113.42,126.8 " fill="none" id="B2cProduct-to-ReportingService" style="stroke:#A80036;stroke-width:1.0;"/><polygon fill="#A80036" points="114.03,131.91,116.9228,122.4956,113.4309,126.946,108.9804,123.4541,114.03,131.91" style="stroke:#A80036;stroke-width:1.0;"/><text fill="#000000" font-family="sans-serif" font-size="13" lengthAdjust="spacing" textLength="28" x="116.5" y="98.4951">uses</text><!--MD5=[1d5868079c06ba4027d43d5c67496dce]
link B2bProduct to WebService--><path d="M316.29,54.03 C318.77,74.52 322.4,104.56 325.06,126.55 " fill="none" id="B2bProduct-to-WebService" style="stroke:#A80036;stroke-width:1.0;"/><polygon fill="#A80036" points="325.68,131.67,328.5728,122.2556,325.0809,126.706,320.6304,123.2141,325.68,131.67" style="stroke:#A80036;stroke-width:1.0;"/><text fill="#000000" font-family="sans-serif" font-size="13" lengthAdjust="spacing" textLength="28" x="323.5" y="98.4951">uses</text><!--MD5=[eabc647121bd4c5b08be840748e610b7]
link B2bProduct to ReportingService--><path d="M285.58,54.01 C267.32,68.56 242.65,87.33 219.5,102 C204.14,111.74 186.8,121.32 170.87,129.59 " fill="none" id="B2bProduct-to-ReportingService" style="stroke:#A80036;stroke-width:1.0;"/><polygon fill="#A80036" points="166.42,131.89,176.2514,131.3046,170.8603,129.5913,172.5736,124.2002,166.42,131.89" style="stroke:#A80036;stroke-width:1.0;"/><text fill="#000000" font-family="sans-serif" font-size="13" lengthAdjust="spacing" textLength="28" x="245.5" y="98.4951">uses</text><!--MD5=[7c2eea16889f94c33ff695281b9cddd5]
link WebService to HistoryService--><path d="M309.37,180.03 C292.07,200.87 266.56,231.58 248.22,253.65 " fill="none" id="WebService-to-HistoryService" style="stroke:#A80036;stroke-width:1.0;"/><polygon fill="#A80036" points="244.88,257.67,253.7033,253.2941,248.0711,253.8207,247.5445,248.1884,244.88,257.67" style="stroke:#A80036;stroke-width:1.0;"/><text fill="#000000" font-family="sans-serif" font-size="13" lengthAdjust="spacing" textLength="27" x="284.5" y="224.4951">calls</text><!--MD5=[99b8cdb25267b1342f420a910368fcc0]
link WebService to ContainerService--><path d="M344.06,180.12 C349.43,189.11 354.98,199.7 358.5,210 C365.49,230.4 363.94,236.5 365.5,258 C367.05,279.28 368.6,284.89 365.5,306 C354.68,379.88 325.02,463.11 308.68,505.29 " fill="none" id="WebService-to-ContainerService" style="stroke:#A80036;stroke-width:1.0;"/><polygon fill="#A80036" points="306.85,509.98,313.8441,503.0459,308.665,505.3211,306.3898,500.1419,306.85,509.98" style="stroke:#A80036;stroke-width:1.0;"/><text fill="#000000" font-family="sans-serif" font-size="13" lengthAdjust="spacing" textLength="43" x="361.5" y="350.4951">runs on</text><!--MD5=[1d97798ca36b2db0381b9f127c3cf454]
link WebService to MonitoringService--><path d="M331.3,180.2 C333.85,211.35 334.09,267.24 309.5,306 C287.96,339.97 250.4,364.94 217.76,381.56 " fill="none" id="WebService-to-MonitoringService" style="stroke:#A80036;stroke-width:1.0;"/><polygon fill="#A80036" points="212.99,383.95,222.8281,383.4902,217.4593,381.7082,219.2413,376.3394,212.99,383.95" style="stroke:#A80036;stroke-width:1.0;"/><text fill="#000000" font-family="sans-serif" font-size="13" lengthAdjust="spacing" textLength="28" x="328.5" y="287.4951">uses</text><!--MD5=[13a8a4643b6c5aee8417183eeda26255]
link ReportingService to HistoryService--><path d="M138.38,180.03 C156.36,200.87 182.86,231.58 201.91,253.65 " fill="none" id="ReportingService-to-HistoryService" style="stroke:#A80036;stroke-width:1.0;"/><polygon fill="#A80036" points="205.37,257.67,202.5119,248.245,202.1008,253.8868,196.4589,253.4757,205.37,257.67" style="stroke:#A80036;stroke-width:1.0;"/><text fill="#000000" font-family="sans-serif" font-size="13" lengthAdjust="spacing" textLength="27" x="179.5" y="224.4951">calls</text><!--MD5=[c7542c0d398621598a373fe681932577]
link ReportingService to ContainerService--><path d="M102.81,180.16 C70.94,230.35 6,351.18 59.5,432 C77.86,459.72 154.67,489.18 216.13,509.08 " fill="none" id="ReportingService-to-ContainerService" style="stroke:#A80036;stroke-width:1.0;"/><polygon fill="#A80036" points="220.9,510.62,213.5551,504.0585,216.1397,509.0904,211.1078,511.675,220.9,510.62" style="stroke:#A80036;stroke-width:1.0;"/><text fill="#000000" font-family="sans-serif" font-size="13" lengthAdjust="spacing" textLength="43" x="41.5" y="350.4951">runs on</text><!--MD5=[39fc7b9511ba6882267fde15b55a7152]
link ReportingService to MonitoringService--><path d="M113.59,180.01 C108.11,209.53 101.18,262.16 110.5,306 C116.03,331.96 128.71,359.35 139.21,379.04 " fill="none" id="ReportingService-to-MonitoringService" style="stroke:#A80036;stroke-width:1.0;"/><polygon fill="#A80036" points="141.83,383.88,141.0812,374.0596,139.4578,379.4786,134.0389,377.8552,141.83,383.88" style="stroke:#A80036;stroke-width:1.0;"/><text fill="#000000" font-family="sans-serif" font-size="13" lengthAdjust="spacing" textLength="28" x="111.5" y="287.4951">uses</text><!--MD5=[43a48608f4aa4f3f29070c5ea5ba1fb8]
link HistoryService to ContainerService--><path d="M233.73,306.24 C245.55,340.17 267.55,405.4 282.5,462 C286.2,475.98 289.59,491.69 292.22,504.78 " fill="none" id="HistoryService-to-ContainerService" style="stroke:#A80036;stroke-width:1.0;"/><polygon fill="#A80036" points="293.22,509.84,295.3934,500.234,292.2477,504.9355,287.5462,501.7897,293.22,509.84" style="stroke:#A80036;stroke-width:1.0;"/><text fill="#000000" font-family="sans-serif" font-size="13" lengthAdjust="spacing" textLength="43" x="275.5" y="413.4951">runs on</text><!--MD5=[8f3a8e0bd33dde4ce55f9adf97b10e3a]
link HistoryService to MonitoringService--><path d="M212.5,306.03 C200.84,326.7 183.69,357.07 171.25,379.1 " fill="none" id="HistoryService-to-MonitoringService" style="stroke:#A80036;stroke-width:1.0;"/><polygon fill="#A80036" points="168.67,383.67,176.5751,377.7955,171.1261,379.3148,169.6067,373.8658,168.67,383.67" style="stroke:#A80036;stroke-width:1.0;"/><text fill="#000000" font-family="sans-serif" font-size="13" lengthAdjust="spacing" textLength="28" x="196.5" y="350.4951">uses</text><!--MD5=[088a532726f6c0f5aba5ff15d84efb73]
link MonitoringService to ContainerService--><path d="M180.18,432 C195.39,446.05 215.39,464.27 233.5,480 C243.6,488.77 254.78,498.14 264.93,506.52 " fill="none" id="MonitoringService-to-ContainerService" style="stroke:#A80036;stroke-width:1.0;"/><polygon fill="#A80036" points="268.91,509.8,264.4986,500.9943,265.0479,506.6245,259.4177,507.1738,268.91,509.8" style="stroke:#A80036;stroke-width:1.0;"/><text fill="#000000" font-family="sans-serif" font-size="13" lengthAdjust="spacing" textLength="43" x="234.5" y="476.4951">runs on</text><!--MD5=[e94fe180065fd19135762dbd3a851d21]
link MonitoringService to CloudResource--><path d="M158.18,432.07 C163.51,478.02 175.44,580.84 181.23,630.75 " fill="none" id="MonitoringService-to-CloudResource" style="stroke:#A80036;stroke-width:1.0;"/><polygon fill="#A80036" points="181.83,635.98,184.7761,626.5821,181.259,631.0127,176.8284,627.4956,181.83,635.98" style="stroke:#A80036;stroke-width:1.0;"/><text fill="#000000" font-family="sans-serif" font-size="13" lengthAdjust="spacing" textLength="28" x="173.5" y="539.4951">uses</text><!--MD5=[ad7c5248d5cd15534306de830d3f2e40]
link ContainerService to CloudResource--><path d="M276.51,558.03 C257.45,578.95 229.31,609.83 209.18,631.93 " fill="none" id="ContainerService-to-CloudResource" style="stroke:#A80036;stroke-width:1.0;"/><polygon fill="#A80036" points="205.76,635.67,214.77,631.6926,209.1198,631.9671,208.8453,626.3169,205.76,635.67" style="stroke:#A80036;stroke-width:1.0;"/><text fill="#000000" font-family="sans-serif" font-size="13" lengthAdjust="spacing" textLength="28" x="249.5" y="602.4951">uses</text><rect fill="#DDDDDD" height="27.6094" rx="5" ry="5" style="stroke:#000000;stroke-width:1.0;" width="93" x="152.75" y="699.7578"/><text fill="#000000" font-family="sans-serif" font-size="14" lengthAdjust="spacing" textLength="81" x="158.75" y="719.291">-&gt; consumes</text><!--MD5=[f5235ba25504292bf6e7584961440f99]
@startuml

node B2cProduct as "B2c Product"
node B2bProduct as "B2b Product"

component WebService as "Web Service"
component ReportingService as "Reporting Service"
component HistoryService as "History Service"
component MonitoringService as "Monitoring Service"
component ContainerService as "Container Service"

cloud CloudResource as "Cloud Resource"

B2cProduct -down-> WebService: uses
B2cProduct -down-> ReportingService: uses

B2bProduct -down-> WebService: uses
B2bProduct -down-> ReportingService: uses

WebService -down-> HistoryService: calls
WebService -down-> ContainerService: runs on
WebService -down-> MonitoringService: uses

ReportingService -down-> HistoryService: calls
ReportingService -down-> ContainerService: runs on
ReportingService -down-> MonitoringService: uses

HistoryService -down-> ContainerService: runs on
HistoryService -down-> MonitoringService: uses

MonitoringService -down-> ContainerService: runs on
MonitoringService -down-> CloudResource: uses

ContainerService -down-> CloudResource: uses

legend
-> consumes
end legend

@enduml

PlantUML version 1.2022.1(Tue Feb 01 19:19:58 CET 2022)
(GPL source distribution)
Java Runtime: OpenJDK Runtime Environment
JVM: OpenJDK 64-Bit Server VM
Default Encoding: Cp1252
Language: en
Country: IE
--></g></svg>