<?xml version="1.0" encoding="UTF-8" standalone="no"?><svg xmlns="http://www.w3.org/2000/svg" xmlns:xlink="http://www.w3.org/1999/xlink" contentScriptType="application/ecmascript" contentStyleType="text/css" height="623px" preserveAspectRatio="none" style="width:616px;height:623px;background:#FFFFFF;" version="1.1" viewBox="0 0 616 623" width="616px" zoomAndPan="magnify"><defs><filter height="300%" id="fzkj1us6llhpt" width="300%" x="-1" y="-1"><feGaussianBlur result="blurOut" stdDeviation="2.0"/><feColorMatrix in="blurOut" result="blurOut2" type="matrix" values="0 0 0 0 0 0 0 0 0 0 0 0 0 0 0 0 0 0 .4 0"/><feOffset dx="4.0" dy="4.0" in="blurOut2" result="blurOut3"/><feBlend in="SourceGraphic" in2="blurOut3" mode="normal"/></filter></defs><g><!--MD5=[5c937046dbf8bbf68282affcfb6aa6db]
entity CloudResource--><path d="M189.2581,520.8724 C193.3207,514.2439 198.287,513.9566 203.5219,519.4984 C206.3856,513.5954 211.1438,511.9232 216.2042,516.9492 C220.316,510.4665 226.062,511.0834 230.3684,516.7218 C234.2674,510.1882 239.8353,508.0829 244.9449,515.4527 C249.0938,508.643 254.5595,509.0189 258.4287,515.7317 C262.7985,510.4712 267.8642,510.641 271.6786,516.3996 C277.3691,509.8157 282.0291,510.313 285.5021,518.478 C289.8298,511.5039 295.0971,511.7673 298.7565,519.0973 C306.4416,523.3314 307.6472,529.7564 300.9748,535.8874 C306.6464,541.3404 305.0952,548.6846 297.384,550.9466 C294.3418,557.5096 289.7511,557.406 285.0229,552.8151 C281.342,559.528 276.3273,560.2623 271.1037,554.5422 C267.9128,563.4716 262.8297,562.4392 256.6789,557.6558 C253.0601,562.8461 249.4071,564.612 244.7195,558.8196 C238.5731,565.8036 234.0929,565.2707 230.1198,556.7705 C225.6242,561.8418 220.4527,561.6707 217.6346,554.9885 C213.9895,560.3927 207.5679,561.1949 204.3009,554.5696 C198.7649,559.2795 193.0282,557.3976 190.8825,550.6121 C180.6092,550.1446 177.2532,544.1728 181.0215,534.8954 C177.4473,526.5965 179.1115,521.1121 189.2581,520.8724 " fill="#FEFECE" filter="url(#fzkj1us6llhpt)" style="stroke:#000000;stroke-width:1.5;"/><text fill="#000000" font-family="sans-serif" font-size="14" lengthAdjust="spacing" textLength="94" x="196.04" y="540.5332">cloud resource</text><!--MD5=[c34839cc5614f16751a4dd79c5a29378]
entity application1 service--><rect fill="#FEFECE" filter="url(#fzkj1us6llhpt)" height="47.6094" style="stroke:#A80036;stroke-width:1.5;" width="165" x="396.54" y="7"/><rect fill="#FEFECE" height="10" style="stroke:#A80036;stroke-width:1.5;" width="15" x="541.54" y="12"/><rect fill="#FEFECE" height="2" style="stroke:#A80036;stroke-width:1.5;" width="4" x="539.54" y="14"/><rect fill="#FEFECE" height="2" style="stroke:#A80036;stroke-width:1.5;" width="4" x="539.54" y="18"/><text fill="#000000" font-family="sans-serif" font-size="14" lengthAdjust="spacing" textLength="125" x="411.54" y="41.5332">application1 service</text><!--MD5=[6873b70bfd6f5fb0aabc18bcba72dbf2]
entity shared-application service--><rect fill="#FEFECE" filter="url(#fzkj1us6llhpt)" height="47.6094" style="stroke:#A80036;stroke-width:1.5;" width="206" x="33.04" y="133"/><rect fill="#FEFECE" height="10" style="stroke:#A80036;stroke-width:1.5;" width="15" x="219.04" y="138"/><rect fill="#FEFECE" height="2" style="stroke:#A80036;stroke-width:1.5;" width="4" x="217.04" y="140"/><rect fill="#FEFECE" height="2" style="stroke:#A80036;stroke-width:1.5;" width="4" x="217.04" y="144"/><text fill="#000000" font-family="sans-serif" font-size="14" lengthAdjust="spacing" textLength="166" x="48.04" y="167.5332">shared-application service</text><!--MD5=[5a934037c56083af3895221d2dd8045e]
entity container service--><rect fill="#FEFECE" filter="url(#fzkj1us6llhpt)" height="47.6094" style="stroke:#A80036;stroke-width:1.5;" width="148" x="97.04" y="385"/><rect fill="#FEFECE" height="10" style="stroke:#A80036;stroke-width:1.5;" width="15" x="225.04" y="390"/><rect fill="#FEFECE" height="2" style="stroke:#A80036;stroke-width:1.5;" width="4" x="223.04" y="392"/><rect fill="#FEFECE" height="2" style="stroke:#A80036;stroke-width:1.5;" width="4" x="223.04" y="396"/><text fill="#000000" font-family="sans-serif" font-size="14" lengthAdjust="spacing" textLength="108" x="112.04" y="419.5332">container service</text><!--MD5=[b94033164d2bb205088894b6e3f48b0f]
entity monitoring service--><rect fill="#FEFECE" filter="url(#fzkj1us6llhpt)" height="47.6094" style="stroke:#A80036;stroke-width:1.5;" width="155" x="237.54" y="259"/><rect fill="#FEFECE" height="10" style="stroke:#A80036;stroke-width:1.5;" width="15" x="372.54" y="264"/><rect fill="#FEFECE" height="2" style="stroke:#A80036;stroke-width:1.5;" width="4" x="370.54" y="266"/><rect fill="#FEFECE" height="2" style="stroke:#A80036;stroke-width:1.5;" width="4" x="370.54" y="270"/><text fill="#000000" font-family="sans-serif" font-size="14" lengthAdjust="spacing" textLength="115" x="252.54" y="293.5332">monitoring service</text><!--MD5=[2c95c622544f8ef34ebf4f328dbeaca1]
entity application2 service--><rect fill="#FEFECE" filter="url(#fzkj1us6llhpt)" height="47.6094" style="stroke:#A80036;stroke-width:1.5;" width="165" x="53.54" y="7"/><rect fill="#FEFECE" height="10" style="stroke:#A80036;stroke-width:1.5;" width="15" x="198.54" y="12"/><rect fill="#FEFECE" height="2" style="stroke:#A80036;stroke-width:1.5;" width="4" x="196.54" y="14"/><rect fill="#FEFECE" height="2" style="stroke:#A80036;stroke-width:1.5;" width="4" x="196.54" y="18"/><text fill="#000000" font-family="sans-serif" font-size="14" lengthAdjust="spacing" textLength="125" x="68.54" y="41.5332">application2 service</text><!--MD5=[979a31edc9aed5d7c4c00c5e7f957942]
reverse link application1 service to shared-application service--><path d="M410.58,56.75 C349.13,78.96 259.63,111.32 199.7,132.99 " fill="none" id="application1 service-backto-shared-application service" style="stroke:#A80036;stroke-width:1.0;"/><polygon fill="#A80036" points="415.33,55.03,405.5061,54.3297,410.6281,56.7307,408.2272,61.8527,415.33,55.03" style="stroke:#A80036;stroke-width:1.0;"/><text fill="#000000" font-family="sans-serif" font-size="13" lengthAdjust="spacing" textLength="93" x="329.04" y="99.4951">transaction cost</text><!--MD5=[a27272a63f37f6f6d26d452d822ad990]
reverse link application1 service to container service--><path d="M504.35,59.16 C528.97,89.05 560.22,138.5 542.04,181 C490.42,301.62 337.97,363.07 245.34,390.11 " fill="none" id="application1 service-backto-container service" style="stroke:#A80036;stroke-width:1.0;"/><polygon fill="#A80036" points="501.07,55.25,503.7761,64.7198,504.2779,59.0853,509.9125,59.5871,501.07,55.25" style="stroke:#A80036;stroke-width:1.0;"/><text fill="#000000" font-family="sans-serif" font-size="13" lengthAdjust="spacing" textLength="82" x="526.04" y="225.4951">container cost</text><!--MD5=[a46f21d55f756d4e956f2fd71e3f9b59]
reverse link application1 service to monitoring service--><path d="M469.71,60.03 C458.65,91.14 438.33,142.06 412.04,181 C392.04,210.62 363.02,239.52 341.94,258.77 " fill="none" id="application1 service-backto-monitoring service" style="stroke:#A80036;stroke-width:1.0;"/><polygon fill="#A80036" points="471.41,55.22,464.6517,62.3842,469.7519,59.9371,472.199,65.0372,471.41,55.22" style="stroke:#A80036;stroke-width:1.0;"/><text fill="#000000" font-family="sans-serif" font-size="13" lengthAdjust="spacing" textLength="93" x="440.04" y="162.4951">time-series cost</text><!--MD5=[17ef3dff8900b44ac06030161913f266]
reverse link application2 service to shared-application service--><path d="M136.04,60.14 C136.04,82.04 136.04,112.09 136.04,132.67 " fill="none" id="application2 service-backto-shared-application service" style="stroke:#A80036;stroke-width:1.0;"/><polygon fill="#A80036" points="136.04,55.03,132.04,64.03,136.04,60.03,140.04,64.03,136.04,55.03" style="stroke:#A80036;stroke-width:1.0;"/><text fill="#000000" font-family="sans-serif" font-size="13" lengthAdjust="spacing" textLength="93" x="137.04" y="99.4951">transaction cost</text><!--MD5=[1be9b14794d9c1cc5dbaf13c78e76d00]
reverse link application2 service to container service--><path d="M87.94,57.88 C61.1,75.22 30.12,100.77 15.04,133 C6,152.32 10.14,160.24 15.04,181 C35.31,266.87 107.39,346.87 146.07,384.86 " fill="none" id="application2 service-backto-container service" style="stroke:#A80036;stroke-width:1.0;"/><polygon fill="#A80036" points="92.21,55.17,82.467,56.6101,87.987,57.847,86.7501,63.3669,92.21,55.17" style="stroke:#A80036;stroke-width:1.0;"/><text fill="#000000" font-family="sans-serif" font-size="13" lengthAdjust="spacing" textLength="82" x="32.04" y="225.4951">container cost</text><!--MD5=[519b04d58f18109494517e379f760e44]
reverse link application2 service to monitoring service--><path d="M203.05,57.45 C216.25,64.8 229.08,73.91 239.04,85 C285.22,136.41 304.59,218.92 311.6,258.86 " fill="none" id="application2 service-backto-monitoring service" style="stroke:#A80036;stroke-width:1.0;"/><polygon fill="#A80036" points="198.56,55.03,204.5848,62.8211,202.9614,57.4022,208.3804,55.7788,198.56,55.03" style="stroke:#A80036;stroke-width:1.0;"/><text fill="#000000" font-family="sans-serif" font-size="13" lengthAdjust="spacing" textLength="93" x="291.04" y="162.4951">time-series cost</text><!--MD5=[5ee2b2181579b07288d8e9da3731f8ad]
reverse link shared-application service to container service--><path d="M133.27,186.21 C130.95,216.34 129.03,265.4 136.04,307 C140.69,334.63 152.03,364.81 160.55,384.91 " fill="none" id="shared-application service-backto-container service" style="stroke:#A80036;stroke-width:1.0;"/><polygon fill="#A80036" points="133.67,181.17,128.9631,189.8213,133.2701,186.154,136.9374,190.4611,133.67,181.17" style="stroke:#A80036;stroke-width:1.0;"/><text fill="#000000" font-family="sans-serif" font-size="13" lengthAdjust="spacing" textLength="82" x="137.04" y="288.4951">container cost</text><!--MD5=[dbd25d43c82bd24da603d184a11d0ac0]
reverse link shared-application service to monitoring service--><path d="M151.15,185.44 C160.27,199.96 173.02,217.18 188.04,229 C203.62,241.27 222.44,251.15 240.78,258.91 " fill="none" id="shared-application service-backto-monitoring service" style="stroke:#A80036;stroke-width:1.0;"/><polygon fill="#A80036" points="148.44,181.03,149.7411,190.7925,151.0565,185.2907,156.5583,186.6061,148.44,181.03" style="stroke:#A80036;stroke-width:1.0;"/><text fill="#000000" font-family="sans-serif" font-size="13" lengthAdjust="spacing" textLength="93" x="189.04" y="225.4951">time-series cost</text><!--MD5=[e51d2b4a0ba001ccf529b2fc25c372ba]
reverse link monitoring service to container service--><path d="M243.91,309.53 C229.86,316.86 216.07,325.94 205.04,337 C191.81,350.26 183.01,369.66 177.67,384.83 " fill="none" id="monitoring service-backto-container service" style="stroke:#A80036;stroke-width:1.0;"/><polygon fill="#A80036" points="248.68,307.11,238.8431,307.5949,244.2165,309.3632,242.4481,314.7365,248.68,307.11" style="stroke:#A80036;stroke-width:1.0;"/><text fill="#000000" font-family="sans-serif" font-size="13" lengthAdjust="spacing" textLength="82" x="206.04" y="351.4951">container cost</text><!--MD5=[83a9105fce7b031ce8f297e3945b74f2]
reverse link monitoring service to CloudResource--><path d="M314.12,312.16 C311.97,351.42 304.83,424.16 281.04,481 C276.62,491.55 269.77,502.02 263.1,510.84 " fill="none" id="monitoring service-backto-CloudResource" style="stroke:#A80036;stroke-width:1.0;"/><polygon fill="#A80036" points="314.38,307.08,309.9217,315.862,314.1225,312.0734,317.9111,316.2741,314.38,307.08" style="stroke:#A80036;stroke-width:1.0;"/><text fill="#000000" font-family="sans-serif" font-size="13" lengthAdjust="spacing" textLength="60" x="307.04" y="414.4951">cloud cost</text><!--MD5=[a7009ebf7fdac3889b2dd3d24027020a]
reverse link container service to CloudResource--><path d="M187.05,437.58 C199.8,459.54 217.44,489.91 229.49,510.67 " fill="none" id="container service-backto-CloudResource" style="stroke:#A80036;stroke-width:1.0;"/><polygon fill="#A80036" points="184.41,433.03,185.4716,442.8215,186.9214,437.3535,192.3893,438.8033,184.41,433.03" style="stroke:#A80036;stroke-width:1.0;"/><text fill="#000000" font-family="sans-serif" font-size="13" lengthAdjust="spacing" textLength="60" x="212.04" y="477.4951">cloud cost</text><rect fill="#DDDDDD" height="27.6094" rx="5" ry="5" style="stroke:#000000;stroke-width:1.0;" width="308" x="147.02" y="579.8036"/><text fill="#000000" font-family="sans-serif" font-size="14" lengthAdjust="spacing" textLength="296" x="153.02" y="599.3368">service -allocates its costs to-&gt; another service</text><!--MD5=[ae89b9415ab24ff1169cc756acb28e91]
@startuml

cloud CloudResource as "cloud resource"

[application1 service] <-down- [shared-application service]: transaction cost
[application1 service] <-down- [container service]: container cost
[application1 service] <-down- [monitoring service]: time-series cost

[application2 service] <-down- [shared-application service]: transaction cost
[application2 service] <-down- [container service]: container cost
[application2 service] <-down- [monitoring service]: time-series cost

[shared-application service] <-down- [container service]: container cost
[shared-application service] <-down- [monitoring service]: time-series cost

[monitoring service] <-down- [container service]: container cost
[monitoring service] <-down- CloudResource: cloud cost

[container service] <-down- CloudResource: cloud cost

legend
service -allocates its costs to-> another service
end legend

@enduml

PlantUML version 1.2022.1(Tue Feb 01 19:19:58 CET 2022)
(GPL source distribution)
Java Runtime: OpenJDK Runtime Environment
JVM: OpenJDK 64-Bit Server VM
Default Encoding: Cp1252
Language: en
Country: IE
--></g></svg>